<?xml version="1.0" encoding="iso-8859-1"?>
<!-- Generator: Adobe Illustrator 23.0.1, SVG Export Plug-In . SVG Version: 6.00 Build 0)  -->
<svg version="1.1" id="Layer_1" xmlns="http://www.w3.org/2000/svg" xmlns:xlink="http://www.w3.org/1999/xlink" x="0px" y="0px"
	 viewBox="0 0 512 512" style="enable-background:new 0 0 512 512;" xml:space="preserve">
<g>
	<g>
		<g>
			<g id="XMLID_523_">
				<g id="XMLID_531_">
					<path id="XMLID_560_" style="fill:#2175B3;" d="M177.607,280.095c-1.317-0.891-2.917-1.413-4.623-1.413
						c-1.136,0-2.228,0.231-3.218,0.65c-1.486,0.629-2.744,1.674-3.635,2.993c-0.891,1.317-1.413,2.917-1.413,4.623
						c0,1.136,0.231,2.228,0.65,3.218c0.629,1.486,1.674,2.744,2.993,3.635c1.317,0.891,2.917,1.413,4.623,1.413h6.506
						c0.463,0,0.916-0.188,1.244-0.515c0.328-0.328,0.515-0.781,0.515-1.244v-6.506c0-1.136-0.231-2.228-0.65-3.218
						C179.971,282.244,178.925,280.985,177.607,280.095z M177.731,291.694h-4.747c-0.66,0-1.28-0.133-1.847-0.372
						c-0.85-0.359-1.578-0.963-2.09-1.722c-0.512-0.76-0.809-1.664-0.81-2.653c0-0.66,0.133-1.28,0.372-1.847
						c0.359-0.85,0.963-1.578,1.722-2.09c0.76-0.512,1.664-0.809,2.653-0.81c0.66,0,1.28,0.133,1.847,0.372
						c0.85,0.359,1.578,0.963,2.09,1.722c0.512,0.76,0.809,1.664,0.81,2.653V291.694z"/>
					<polygon id="XMLID_559_" style="fill:#2175B3;" points="241.165,295.159 241.173,295.159 241.173,295.159 241.173,295.159 
											"/>
					<path id="XMLID_556_" style="fill:#2175B3;" d="M237.501,271.725L237.501,271.725l-0.002,0v3.517v16.398v0.057
						c0.03,1.914,1.586,3.457,3.506,3.462h0.008h0.004v-19.917v0C241.018,273.299,239.444,271.725,237.501,271.725z
						 M237.659,291.697c0-0.018-0.003-0.036-0.003-0.055v0l0-0.001h0.003V291.697z"/>
					<path id="XMLID_555_" style="fill:#2175B3;" d="M237.656,291.642L237.656,291.642c0,0.019,0.002,0.037,0.003,0.055v-0.057
						h-0.003L237.656,291.642z"/>
					<path id="XMLID_554_" style="fill:#2175B3;" d="M154.164,271.725L154.164,271.725l-0.002,0v3.517v16.398v0.057
						c0.03,1.914,1.586,3.457,3.506,3.462h0.008h0.004v-19.917v0C157.681,273.299,156.106,271.725,154.164,271.725z"/>
					<path id="XMLID_553_" style="fill:#2175B3;" d="M87.985,282.201L87.985,282.201l0.004,0v-0.08
						C87.989,282.148,87.985,282.174,87.985,282.201z"/>
					<rect id="XMLID_552_" x="199.418" y="278.623" style="fill:#2175B3;" width="0" height="3.559"/>
					<path id="XMLID_551_" style="fill:#2175B3;" d="M230.462,275.242L230.462,275.242v12.228c0.44-0.016,0.88-0.032,1.32-0.049
						c0.733-0.029,1.466-0.064,2.199-0.103v-12.076v-3.514h-0.063C232.004,271.761,230.462,273.32,230.462,275.242z"/>
					<path id="XMLID_548_" style="fill:#2175B3;" d="M231.781,287.42c-0.44,0.017-0.88,0.033-1.32,0.049v4.165h-8.867
						c0.029-0.042,0.062-0.082,0.09-0.124c0.891-1.317,1.413-2.917,1.413-4.623c0-1.136-0.231-2.228-0.65-3.218
						c-0.629-1.486-1.674-2.744-2.993-3.635c-1.317-0.891-2.917-1.413-4.623-1.413c-1.136,0-2.228,0.231-3.218,0.65
						c-1.486,0.629-2.744,1.674-3.635,2.993c-0.891,1.317-1.413,2.917-1.413,4.623v4.747h-7.149v-9.453v-3.559h-0.063
						c-1.866,0.033-3.376,1.53-3.456,3.404v0.155v9.453h-7.612v-16.388v-0.171c-0.089-1.861-1.623-3.343-3.511-3.348h-0.008v3.518
						v19.912h44.893h2.559c0.463,0,0.916-0.188,1.244-0.515s0.515-0.781,0.515-1.244v-6.081
						C233.247,287.356,232.514,287.391,231.781,287.42z M219.207,288.735c-0.359,0.85-0.963,1.578-1.722,2.09
						c-0.76,0.512-1.664,0.809-2.653,0.81h-4.747v-4.747c0-0.66,0.133-1.28,0.372-1.847c0.359-0.85,0.963-1.578,1.722-2.09
						c0.76-0.512,1.664-0.809,2.653-0.81c0.66,0,1.28,0.133,1.847,0.372c0.85,0.359,1.578,0.963,2.09,1.722
						c0.512,0.76,0.809,1.664,0.81,2.653C219.579,287.548,219.447,288.168,219.207,288.735z"/>
					<path id="XMLID_547_" style="fill:#2175B3;" d="M146.325,295.221h2.559c0.036,0,0.072-0.003,0.108-0.005h-2.668
						L146.325,295.221z"/>
					<path id="XMLID_544_" style="fill:#2175B3;" d="M147.124,275.242L147.124,275.242v12.29v4.164h-7.201v-4.747
						c0-1.136-0.231-2.228-0.65-3.218c-0.629-1.486-1.674-2.744-2.993-3.635c-1.317-0.891-2.917-1.413-4.623-1.413
						c-1.136,0-2.228,0.231-3.218,0.65c-1.486,0.629-2.744,1.674-3.635,2.993c-0.891,1.317-1.413,2.917-1.413,4.623
						c0,1.136,0.231,2.228,0.65,3.218c0.629,1.486,1.674,2.744,2.993,3.635c1.317,0.891,2.917,1.413,4.623,1.413h4.747v1.873v0.057
						c0.03,1.914,1.586,3.457,3.506,3.462h0.008h0.004v-5.392h6.401h2.668c0.425-0.027,0.834-0.208,1.136-0.51
						c0.328-0.328,0.515-0.781,0.515-1.244v-6.081v-12.139v-3.509h-0.138C148.627,271.805,147.124,273.345,147.124,275.242z
						 M136.404,291.696h-4.747c-0.66,0-1.28-0.133-1.847-0.372c-0.85-0.359-1.578-0.963-2.09-1.722
						c-0.512-0.76-0.809-1.664-0.81-2.653c0-0.66,0.133-1.28,0.372-1.847c0.359-0.85,0.963-1.578,1.722-2.09
						c0.76-0.512,1.663-0.809,2.653-0.81c0.66,0,1.28,0.133,1.847,0.372c0.85,0.359,1.578,0.963,2.09,1.722
						c0.512,0.76,0.809,1.664,0.81,2.653V291.696z"/>
					<path id="XMLID_540_" style="fill:#2175B3;" d="M116.23,280.097c-1.317-0.891-2.917-1.413-4.623-1.413h-10.567v-0.066h-0.004
						v-3.377v0c0-1.942-1.575-3.517-3.517-3.517h0l-0.001,0v3.517v9.164v0.057c0,0.023,0.004,0.045,0.004,0.068v2.419
						c0,1.136,0.231,2.228,0.65,3.218c0.23,0.542,0.516,1.054,0.85,1.529h-7.514v-13.01h-0.004h-0.063
						c-1.887,0.033-3.409,1.55-3.452,3.435v0.08v9.496h-8.112v-9.49h-0.002v-3.514h-0.059c-1.904,0.033-3.439,1.572-3.46,3.475
						v0.039c0,0,0.002-0.026,0.002-0.039v0.039v9.49h-7.733v-4.747c0-1.136-0.231-2.228-0.65-3.218
						c-0.629-1.486-1.674-2.744-2.993-3.635c-1.317-0.891-2.917-1.413-4.623-1.413c-1.136,0-2.228,0.231-3.218,0.65
						c-1.486,0.629-2.744,1.674-3.635,2.993c-0.891,1.317-1.413,2.917-1.413,4.623c0,1.136,0.231,2.228,0.65,3.218
						c0.629,1.486,1.674,2.744,2.993,3.635c1.317,0.891,2.917,1.413,4.623,1.413h57.754c0.463,0,0.916-0.188,1.244-0.515
						c0.328-0.328,0.515-0.781,0.515-1.244v-6.506c0-1.136-0.231-2.228-0.65-3.218C118.594,282.246,117.548,280.988,116.23,280.097z
						 M65.106,291.696H60.36c-0.66,0-1.28-0.133-1.847-0.372c-0.85-0.359-1.578-0.963-2.09-1.722
						c-0.512-0.76-0.809-1.664-0.81-2.653c0-0.66,0.133-1.28,0.372-1.847c0.359-0.85,0.963-1.578,1.722-2.09
						c0.76-0.512,1.663-0.809,2.653-0.81c0.66,0,1.28,0.133,1.847,0.372c0.85,0.359,1.578,0.963,2.09,1.722
						c0.512,0.76,0.809,1.664,0.81,2.653V291.696z M116.354,291.696h-10.567c-0.66,0-1.28-0.133-1.847-0.372
						c-0.85-0.359-1.578-0.963-2.09-1.722c-0.512-0.76-0.809-1.664-0.81-2.653v-4.747l10.567,0c0.66,0,1.28,0.133,1.847,0.372
						c0.85,0.359,1.578,0.963,2.09,1.722c0.512,0.76,0.809,1.664,0.81,2.653V291.696z"/>
					<path id="XMLID_539_" style="fill:#2175B3;" d="M76.356,282.206L76.356,282.206l0.002,0v-0.039
						C76.358,282.18,76.356,282.193,76.356,282.206z"/>
					<path id="XMLID_538_" style="fill:#2175B3;" d="M195.447,297.044h-2.888c-0.186,0-0.338,0.151-0.338,0.338v2.888
						c0,0.186,0.151,0.338,0.338,0.338h0.578h0.611c1.128-0.02,2.036-0.938,2.036-2.071h0l0-1.155v0v0
						C195.784,297.195,195.633,297.044,195.447,297.044z"/>
					<path id="XMLID_537_" style="fill:#2175B3;" d="M191.415,297.044h-2.888c-0.186,0-0.338,0.151-0.338,0.338v0v0l0,1.155h0
						c0,1.132,0.909,2.051,2.036,2.071h1.189c0.186,0,0.338-0.151,0.338-0.338v-2.888
						C191.752,297.195,191.601,297.044,191.415,297.044z"/>
					<path id="XMLID_536_" style="fill:#2175B3;" d="M75.776,297.044h-2.888c-0.186,0-0.338,0.151-0.338,0.338v2.888
						c0,0.186,0.151,0.338,0.338,0.338h1.189c1.128-0.02,2.036-0.938,2.036-2.071v-1.155v0v0
						C76.113,297.195,75.962,297.044,75.776,297.044z"/>
					<path id="XMLID_535_" style="fill:#2175B3;" d="M83.249,277.852h2.888c0.186,0,0.338-0.151,0.338-0.338v-2.888
						c0-0.186-0.151-0.338-0.338-0.338h-1.189c-1.128,0.02-2.036,0.938-2.036,2.071v1.155v0v0
						C82.911,277.701,83.062,277.852,83.249,277.852z"/>
					<path id="XMLID_534_" style="fill:#2175B3;" d="M71.743,297.044h-2.888c-0.186,0-0.337,0.151-0.338,0.338v0v0v1.155
						c0,1.132,0.909,2.051,2.036,2.071h1.189c0.186,0,0.338-0.151,0.338-0.338v-2.888C72.081,297.195,71.93,297.044,71.743,297.044z
						"/>
					<path id="XMLID_533_" style="fill:#2175B3;" d="M56.9,277.852h2.888c0.186,0,0.338-0.151,0.338-0.338v-2.888
						c0-0.186-0.151-0.338-0.338-0.338h-1.189c-1.128,0.02-2.036,0.938-2.036,2.071v1.155v0v0
						C56.562,277.701,56.713,277.852,56.9,277.852z"/>
					<path id="XMLID_532_" style="fill:#2175B3;" d="M60.932,277.852h2.888c0.186,0,0.338-0.151,0.338-0.338v0v0l0-1.155h0
						c0-1.132-0.909-2.051-2.036-2.071h-1.189c-0.186,0-0.338,0.151-0.338,0.338v2.888
						C60.594,277.701,60.745,277.852,60.932,277.852z"/>
				</g>
				<path id="XMLID_530_" style="fill:#2175B3;" d="M107.297,249.907c1.003,2.826,2.448,5.273,4.33,7.338
					c1.885,2.066,4.163,3.692,6.836,4.878c2.675,1.185,5.652,1.777,8.933,1.777c0.09,0,0.176-0.008,0.263-0.012
					c0.088,0.005,0.173,0.012,0.263,0.012c3.281,0,6.258-0.592,8.933-1.777c2.673-1.187,4.952-2.813,6.836-4.878
					c1.883-2.066,3.328-4.512,4.33-7.338c1.003-2.826,1.503-5.878,1.503-9.16v-24.156c0-1.641-0.472-2.918-1.413-3.829
					c-0.942-0.911-2.203-1.368-3.782-1.368c-1.52,0-2.766,0.457-3.738,1.368c-0.973,0.911-1.458,2.188-1.458,3.829v24.156
					c0,1.762-0.274,3.418-0.821,4.969c-0.547,1.549-1.321,2.901-2.324,4.056c-1.003,1.153-2.234,2.066-3.692,2.735
					c-1.381,0.632-2.932,0.95-4.639,0.984c-1.707-0.034-3.258-0.352-4.639-0.984c-1.458-0.67-2.689-1.583-3.692-2.735
					c-1.003-1.155-1.777-2.507-2.324-4.056c-0.547-1.551-0.821-3.207-0.821-4.969v-18.645c0-1.641-0.486-2.918-1.458-3.829
					c-0.971-0.911-2.217-1.368-3.738-1.368c-1.579,0-2.84,0.457-3.782,1.368c-0.941,0.911-1.413,2.188-1.413,3.829v18.645
					C105.793,244.029,106.294,247.081,107.297,249.907z"/>
				<path id="XMLID_529_" style="fill:#2175B3;" d="M140.725,249.907c1.003,2.826,2.448,5.273,4.33,7.338
					c1.885,2.066,4.163,3.692,6.836,4.878c2.675,1.185,5.652,1.777,8.933,1.777c0.09,0,0.176-0.008,0.263-0.012
					c0.088,0.005,0.173,0.012,0.263,0.012c3.281,0,6.258-0.592,8.933-1.777c2.673-1.187,4.952-2.813,6.836-4.878
					c1.883-2.066,3.328-4.512,4.33-7.338c1.003-2.826,1.503-5.878,1.503-9.16v-24.156c0-1.641-0.472-2.918-1.413-3.829
					c-0.942-0.911-2.203-1.368-3.782-1.368c-1.52,0-2.766,0.457-3.738,1.368c-0.973,0.911-1.458,2.188-1.458,3.829v24.156
					c0,1.762-0.274,3.418-0.821,4.969c-0.547,1.549-1.321,2.901-2.324,4.056c-1.003,1.153-2.234,2.066-3.692,2.735
					c-1.381,0.632-2.932,0.95-4.639,0.984c-1.707-0.034-3.258-0.352-4.639-0.984c-1.458-0.67-2.689-1.583-3.692-2.735
					c-1.003-1.155-1.777-2.507-2.324-4.056c-0.547-1.551-0.821-3.207-0.821-4.969v-24.156c0-1.641-0.486-2.918-1.458-3.829
					c-0.971-0.911-2.217-1.368-3.738-1.368c-1.579,0-2.84,0.457-3.782,1.368c-0.941,0.911-1.413,2.188-1.413,3.829v24.156
					C139.221,244.029,139.722,247.081,140.725,249.907z"/>
				<path id="XMLID_528_" style="fill:#2175B3;" d="M203.132,217.284c-2.826,1.003-5.273,2.448-7.338,4.33
					c-2.066,1.885-3.692,4.163-4.878,6.836c-1.185,2.675-1.777,5.652-1.777,8.933c0,0.09,0.008,0.176,0.012,0.263
					c-0.005,0.088-0.012,0.173-0.012,0.263c0,3.281,0.592,6.258,1.777,8.933c1.187,2.673,2.813,4.952,4.878,6.836
					c2.066,1.883,4.512,3.328,7.338,4.33c2.826,1.003,5.878,1.503,9.16,1.503h24.156c1.641,0,2.918-0.472,3.829-1.413
					c0.911-0.942,1.368-2.203,1.368-3.782c0-1.52-0.457-2.766-1.368-3.738c-0.911-0.973-2.188-1.458-3.829-1.458h-24.156
					c-1.762,0-3.418-0.274-4.969-0.821c-1.549-0.547-2.901-1.321-4.056-2.324c-1.153-1.003-2.066-2.234-2.735-3.692
					c-0.632-1.381-0.95-2.932-0.984-4.639c0.034-1.707,0.352-3.258,0.984-4.639c0.67-1.458,1.583-2.689,2.735-3.692
					c1.155-1.003,2.507-1.777,4.056-2.324c1.551-0.547,3.207-0.821,4.969-0.821h18.655c1.56-0.483,2.455-2.467,3.366-3.44
					c0.911-0.971,1.831-0.236,1.831-1.757c0-1.579-0.457-2.84-1.368-3.782c-0.911-0.941-2.188-1.413-3.829-1.413h-18.655
					C209.01,215.78,205.958,216.281,203.132,217.284z"/>
				<path id="XMLID_527_" style="fill:#2175B3;" d="M241.094,215.778L241.094,215.778l-10.395,0v10.381h0.187
					C236.539,226.061,241.094,221.455,241.094,215.778z"/>
				<path id="XMLID_526_" style="fill:#2175B3;" d="M94.02,225.386c-1.003-2.826-2.448-5.273-4.33-7.338
					c-1.885-2.066-4.163-3.692-6.836-4.878c-2.675-1.185-5.652-1.777-8.933-1.777c-0.09,0-0.176,0.008-0.263,0.012
					c-0.088-0.005-0.173-0.012-0.263-0.012c-3.281,0-6.258,0.592-8.933,1.777c-2.673,1.187-4.952,2.813-6.836,4.878
					c-1.883,2.066-3.328,4.512-4.33,7.338c-1.003,2.826-1.503,5.878-1.503,9.16v24.156c0,1.641,0.472,2.918,1.413,3.829
					c0.942,0.911,2.203,1.368,3.782,1.368c1.52,0,2.766-0.457,3.738-1.368c0.973-0.911,1.458-2.188,1.458-3.829v-24.156
					c0-1.762,0.274-3.418,0.821-4.969c0.547-1.549,1.321-2.901,2.324-4.056c1.003-1.153,2.234-2.066,3.692-2.735
					c1.381-0.632,2.932-0.95,4.639-0.984c1.707,0.034,3.258,0.352,4.639,0.984c1.458,0.67,2.689,1.583,3.692,2.735
					c1.003,1.155,1.777,2.507,2.324,4.056c0.547,1.551,0.821,3.207,0.821,4.969v18.655c0.483,1.56,2.467,2.455,3.44,3.366
					c0.971,0.911,0.236,1.831,1.756,1.831c1.579,0,2.84-0.457,3.782-1.368c0.941-0.911,1.413-2.188,1.413-3.829v-18.655
					C95.524,231.264,95.023,228.212,94.02,225.386z"/>
				<path id="XMLID_525_" style="fill:#2175B3;" d="M95.526,263.348L95.526,263.348l0-10.395H85.145v0.187
					C85.243,258.794,89.849,263.348,95.526,263.348z"/>
				<path id="XMLID_524_" style="fill:#2175B3;" d="M105.854,212.343L105.854,212.343l0,10.395h10.381v-0.187
					C116.136,216.898,111.53,212.343,105.854,212.343z"/>
			</g>
		</g>
	</g>
	<g id="XMLID_503_">
		<g id="XMLID_504_">
			<defs>
				<circle id="XMLID_505_" cx="365.828" cy="256" r="94.382"/>
			</defs>
			<clipPath id="XMLID_4_">
				<use xlink:href="#XMLID_505_"  style="overflow:visible;"/>
			</clipPath>
			<circle id="XMLID_522_" style="clip-path:url(#XMLID_4_);fill:#FFFFFF;" cx="366.941" cy="258.298" r="98.42"/>
			<g id="XMLID_506_" style="clip-path:url(#XMLID_4_);">
				
					<radialGradient id="XMLID_5_" cx="240.2814" cy="293.5784" r="32.438" gradientTransform="matrix(2.9169 0 0 2.9169 -335.2782 -600.3179)" gradientUnits="userSpaceOnUse">
					<stop  offset="0" style="stop-color:#FFFFFF"/>
					<stop  offset="0.4669" style="stop-color:#FDFEFE;stop-opacity:0.9066"/>
					<stop  offset="0.635" style="stop-color:#F6F9FB;stop-opacity:0.873"/>
					<stop  offset="0.7549" style="stop-color:#EBF1F5;stop-opacity:0.849"/>
					<stop  offset="0.8518" style="stop-color:#DAE6ED;stop-opacity:0.8296"/>
					<stop  offset="0.9339" style="stop-color:#C4D7E2;stop-opacity:0.8132"/>
					<stop  offset="1" style="stop-color:#ACC7D6;stop-opacity:0.8"/>
				</radialGradient>
				<circle id="XMLID_521_" style="opacity:0.69;fill:url(#XMLID_5_);" cx="365.592" cy="256.012" r="94.618"/>
				<g id="XMLID_517_">
					<path id="XMLID_520_" style="fill:#C3DCE9;" d="M365.58,345.325c0.112,0,0.222-0.008,0.334-0.008
						c-0.712-0.004-1.422-0.016-2.13-0.037C364.383,345.291,364.977,345.325,365.58,345.325z"/>
					<path id="XMLID_519_" style="fill:#006CAA;" d="M363.783,345.279c-0.197-0.004-0.393-0.01-0.589-0.015
						C363.39,345.272,363.587,345.274,363.783,345.279z"/>
					<path id="XMLID_518_" style="fill:#006CAA;" d="M404.051,330.985c-17.599,0-33.726-6.197-46.268-16.489
						c-15.93-13.073-26.075-32.757-26.075-54.779c0-12.416,7.547-30.522,13.214-40.688c-21.767,19.503-29.017,42.016-29.017,64.858
						c0,7.925,1.161,15.578,3.285,22.829c3.547,12.111,8.555,21.194,18.057,30.15c3.096,2.918,8.771,6.143,12.957,7.549
						c4.329,1.454,8.469,2.728,13.166,2.896c0.199,0.005,0.398,0.011,0.598,0.015c0.719,0.021,1.439,0.033,2.162,0.037
						c20.418-0.075,39.218-6.869,54.268-18.244C415.142,330.318,409.678,330.985,404.051,330.985z"/>
				</g>
				<g id="XMLID_511_">
					<path id="XMLID_516_" style="fill:none;" d="M327.831,228.612c12.944-17.232,31.93-29.665,53.816-34.146
						C359.606,198.798,340.679,211.241,327.831,228.612z"/>
					<g id="XMLID_512_">
						<path id="XMLID_515_" style="fill:#C3DCE9;" d="M440.008,205.821c-4.559-2.065-9.32-3.763-14.245-5.055
							c6.517,11.525,7.064,19.639,7.064,33.825c0,42.5-30.993,74.656-72.963,76.787c12.679,10.562,30.974,16.135,48.766,16.135
							c5.689,0,9.869-0.879,15.133-2.926c21.629-16.595,32.607-38.346,32.607-67.715
							C456.37,235.622,452.242,221.283,440.008,205.821z"/>
						<path id="XMLID_514_" style="fill:#C3DCE9;" d="M407.253,176.218c6.06,5.595,11.236,12.128,15.324,19.357
							c4.925,1.292,9.685,2.99,14.245,5.055C428.84,190.542,418.77,182.181,407.253,176.218z"/>
						<linearGradient id="XMLID_6_" gradientUnits="userSpaceOnUse" x1="355.7392" y1="308.6898" x2="355.7392" y2="69.2921">
							<stop  offset="0" style="stop-color:#00AE8D"/>
							<stop  offset="0.6299" style="stop-color:#2081BE"/>
							<stop  offset="0.6337" style="stop-color:#2081BE"/>
							<stop  offset="0.7527" style="stop-color:#207EBB"/>
							<stop  offset="0.8333" style="stop-color:#2075B3"/>
							<stop  offset="0.9024" style="stop-color:#2166A4"/>
							<stop  offset="0.9649" style="stop-color:#22518F"/>
							<stop  offset="1" style="stop-color:#224180"/>
						</linearGradient>
						<path id="XMLID_513_" style="fill:url(#XMLID_6_);" d="M365.156,165.234c-50.377,0-91.215,40.659-91.215,90.814
							c0,37.342,29.205,77.396,62.216,86.061c-17.256-14.79-26.309-38.057-26.309-60.055c0-20.157,6.693-38.755,17.983-53.719
							c12.849-17.296,31.775-29.684,53.816-33.996c5.856-1.194,11.92-1.821,18.131-1.821c7.881,0,15.518,1.023,22.799,2.924
							c4.925,1.286,9.685,2.977,14.245,5.033c0.238,0.107,0.479,0.21,0.716,0.319C420.864,179.175,394.648,165.234,365.156,165.234z
							"/>
					</g>
				</g>
				<g id="XMLID_509_" style="opacity:0.46;">
					
						<image style="overflow:visible;" width="729" height="689" id="XMLID_2_" xlink:href="9D695E3AEC46C382.png"  transform="matrix(0.3622 0 0 0.3622 230.4281 118.7724)">
					</image>
				</g>
				<g id="XMLID_507_">
					
						<image style="overflow:visible;" width="753" height="753" id="XMLID_1_" xlink:href="9D695E3AEC46C385.png"  transform="matrix(0.3622 0 0 0.3622 229.0275 119.6802)">
					</image>
				</g>
			</g>
		</g>
	</g>
</g>
</svg>
