<?xml version="1.0" encoding="utf-8"?>
<!-- Generator: Adobe Illustrator 22.0.1, SVG Export Plug-In . SVG Version: 6.00 Build 0)  -->
<svg version="1.1" id="Layer_1" xmlns="http://www.w3.org/2000/svg" xmlns:xlink="http://www.w3.org/1999/xlink" x="0px" y="0px"
	 viewBox="0 0 1000 1000" style="enable-background:new 0 0 1000 1000;" xml:space="preserve">
<style type="text/css">
	.st0{fill:#01524C;}
	.st1{clip-path:url(#SVGID_2_);fill:url(#SVGID_3_);}
	.st2{fill:#FFFFFF;}
</style>
<g>
	<g>
		<path class="st0" d="M365.6,538.6l-2.7,0.6l-11,10.9c35-7.4,85.4-12.1,141.4-12.1c56.1,0,106.5,4.7,141.4,12.1l11.7-11.7
			c-36-7.5-86.9-11.8-139.9-11.8C453,526.5,401.6,530.9,365.6,538.6"/>
		<path class="st0" d="M362.9,539.1l0.6-2.7c7.7-36.1,12-87.5,12-141.1c0-53-4.3-103.9-11.8-139.9l-11.7,11.7
			c7.4,35,12.1,85.4,12.1,141.5c0,56.1-4.7,106.5-12.1,141.5L362.9,539.1z"/>
	</g>
	<g>
		<defs>
			<path id="SVGID_1_" d="M645.8,256.2c-36.1,7.4-86.6,11.6-139.2,11.6c-52.5,0-103-4.2-139.1-11.6h0c7.4,36.2,11.6,86.6,11.6,139.2
				c0,52.6-4.2,103.1-11.6,139.2c36.1-7.4,86.6-11.5,139.2-11.5c52.5,0,103,4.2,139.2,11.5c-7.4-36.1-11.6-86.6-11.6-139.2
				C634.2,342.8,638.4,292.3,645.8,256.2L645.8,256.2z"/>
		</defs>
		<clipPath id="SVGID_2_">
			<use xlink:href="#SVGID_1_"  style="overflow:visible;"/>
		</clipPath>
		
			<radialGradient id="SVGID_3_" cx="97.3709" cy="905.4432" r="4.7648" gradientTransform="matrix(36.6692 0 0 -36.673 -3065.0483 33575.125)" gradientUnits="userSpaceOnUse">
			<stop  offset="0" style="stop-color:#7FA7AD"/>
			<stop  offset="0.21" style="stop-color:#578C8E"/>
			<stop  offset="0.4432" style="stop-color:#327372"/>
			<stop  offset="0.6601" style="stop-color:#17615D"/>
			<stop  offset="0.8524" style="stop-color:#075650"/>
			<stop  offset="1" style="stop-color:#01524C"/>
		</radialGradient>
		<rect x="367.5" y="256.2" class="st1" width="278.3" height="278.3"/>
	</g>
	<g>
		<path class="st2" d="M648.1,253.9c-35,7.4-85.4,12.1-141.5,12.1c-56,0-106.5-4.7-141.4-12.1l-1.5,1.5c7.5,36,11.8,86.9,11.8,139.9
			c0,53.6-4.4,105-12,141.1l-0.6,2.7l2.7-0.6c36.1-7.6,87.5-12,141.1-12c53.1,0,103.9,4.3,139.9,11.8l1.5-1.5
			c-7.4-35-12.1-85.4-12.1-141.5C636,339.3,640.6,288.9,648.1,253.9 M645.8,534.5c-36.1-7.4-86.6-11.5-139.2-11.5
			c-52.5,0-103,4.2-139.2,11.5c7.4-36.1,11.6-86.6,11.6-139.2c0-52.5-4.2-103-11.6-139.2c36.1,7.4,86.6,11.6,139.2,11.6
			c52.5,0,103-4.2,139.2-11.6c-7.4,36.1-11.6,86.6-11.6,139.2C634.2,447.9,638.4,498.4,645.8,534.5"/>
		<path class="st2" d="M535.7,360c0.1-1.8-2.2-4.5-3.1-5.3l-0.7-0.6l0.8-0.4c0.4-0.2,0.7-0.5,0.7-0.8c0-1.2-2.9-3.6-5-4.8l-0.8-0.5
			l0.8-0.6c0.1-0.1,0.2-0.2,0.3-0.2c-0.5-0.6-1-1.2-1.5-2.1c-0.5,0.3-1.2,0.7-2.2,0.7c-1.6,0-3.4-0.8-5.6-2.3l-0.1-0.1
			c-0.1-0.1-5.7-6.4-10-9.8c2.2,4,4.2,9.8,4.5,10.6c2.9,4.7,5,4,5,4l0.7-0.2l0.1,0.7c0.6,5,3,5.2,3.1,5.2l0.5,0l0,0.6
			c0.1,4.7,3.1,6.1,3.2,6.1l0.3,0.2l0,0.4c0.2,4.1,1.6,7.3,1.6,7.4l0.1,0.2l0,0.2c-0.1,1.4,1.9,4,3.3,5.5c0.5-0.1,1-0.4,1.2-0.9
			c0.9-1.4,0.7-4.1,0.5-5l-0.1-0.4l0.3-0.2c2.8-2.4,1.2-5.2,1.1-5.3l-0.3-0.5l0.5-0.3C535.4,360.9,535.7,360.5,535.7,360"/>
		<path class="st2" d="M551.6,357l0.1-0.3c1.3-5.4-2-7.8-2.2-7.9l-0.4-0.2l0.1-0.5c0.3-1,0.2-1.9-0.2-2.8c-1.4-2.8-5.8-4.2-5.9-4.2
			l-0.7-0.2l0.3-0.7c0.4-0.8,0.4-1.5,0.1-2c-1.1-1.9-5.6-2.3-7.2-2.3h-0.8l0.3-0.8c0.1-0.3,0.1-0.6,0.2-0.9c-0.1,0-0.2,0-0.3,0
			c-1.4,0-2.9-0.5-4.6-1.6c-0.6,0.8-2.2,2.2-5.8,2.2c-0.7,0-1.5,0-2.3-0.2l-0.1,0c-0.1,0-8-3.1-13.1-3.7c-0.3,0-0.6-0.1-0.9-0.1
			c0,0-0.1,0-0.2,0.1c0.3,0.2,0.7,0.5,1.1,0.7c0.5,0.4,1.1,0.8,1.7,1.3c4.1,3.4,8.6,8.5,9.2,9.1c1.9,1.4,3.6,2.1,4.9,2.1
			c1.3,0,1.8-0.8,1.8-0.8l0.2-0.3l0.3-0.4l0.5,0.8c0.7,1.1,1.3,2,1.9,2.6c0.2,0.2,0.3,0.4,0.5,0.5c1.1,1.1,2,1.3,2.6,1.3
			c0.6,0,0.9-0.2,0.9-0.2l0.5-0.4l0.3,0.6c2.3,4.8,5.1,5.3,6.1,5.3c0.2,0,0.3,0,0.3,0l0.4-0.1l0.2,0.4c2.5,5,5.7,8,5.7,8.1l0.1,0.1
			l0.1,0.1c0.8,2.2,4.4,3.9,6.1,4.5c2.2-3-1.8-9-1.8-9L551.6,357z"/>
		<path class="st2" d="M561.5,336.6c-0.6-2.4-3.8-4.3-3.8-4.3l-0.3-0.2v-0.4c0.1-4.8-3.5-5.2-3.6-5.2l-0.6-0.1l0.1-0.6
			c0.1-0.7,0-1.3-0.4-1.7c-0.7-0.8-2.2-1.3-4.4-1.3c-1.4,0-2.6,0.2-2.6,0.2l-0.9,0.2l0.2-0.9c0.2-0.6,0.1-1,0-1.3
			c-0.2-0.3-0.8-0.5-1.6-0.5c-2.5,0-6.3,1.6-6.3,1.6l-0.9,0.4l0.1-1c0.1-0.6,0-1-0.3-1.3c-0.4-0.4-1-0.6-2-0.6
			c-2.3,0-5.1,1.1-5.2,1.1l-0.2,0.1c-0.9,0.5-2.1,0.9-3.8,0.9c-0.2,1.1-1.1,3.4-5.1,5.4l-0.1,0c-0.1,0-2.2,0.5-4.8,1.2
			c-1.5,0.4-3.2,1-4.7,1.6c0,0-0.1,0-0.1,0c0.5,0.1,1,0.2,1.6,0.3c4.7,1,10.2,3.1,10.9,3.4c0.8,0.1,1.4,0.1,2.1,0.1
			c4.2,0,5.1-2,5.1-2.1l0.3-0.7l0.6,0.4c1.6,1.1,3.1,1.7,4.4,1.7h0.1c0.2,0,0.4-0.1,0.6-0.1c0.2,0,0.4-0.1,0.6-0.2
			c0.7-0.3,1.1-0.7,1.1-0.7l0.4-0.5l0.4,0.4c1.6,1.4,3.2,2.1,5,2.1c1.6,0,2.6-0.6,2.6-0.6l0.4-0.2l0.3,0.3c3.5,2.9,7.3,4,7.4,4
			l0.2,0l0.1,0.1c0.6,0.7,2.2,1.1,4.5,1.1c1.2,0,2.2-0.1,2.7-0.2C561.6,338,561.6,337.3,561.5,336.6"/>
		<path class="st2" d="M519.4,325.7c4.3-2.1,4.4-4.3,4.4-4.7V321l-0.1-0.6l0-0.2l0.4,0h0.3c0.8,0,1.4,0,2-0.1c0.2,0,0.3-0.1,0.5-0.1
			c0.5-0.2,1-0.4,1.3-0.6c0.2-0.1,0.4-0.3,0.5-0.4c0.7-0.6,0.8-1.3,0.8-1.4l0.1-0.6l0.6,0.1c0.4,0.1,0.8,0.1,1.2,0.1
			c3.5,0,4.9-2.6,4.9-2.6l0.2-0.4l0.4,0.1c0.6,0.1,1.3,0.1,2,0.1c2.8,0,4.9-0.7,5-0.7l0.2-0.1l0.1,0.1c0.1,0,0.2,0.1,0.4,0.1
			c1.5,0,4-1.8,5.1-2.7c0-0.6-0.2-1-0.5-1.4c-1.1-1.3-3.5-1.4-4.2-1.4h-0.3l-0.4,0l-0.2-0.4c-0.8-1.5-1.8-2.3-3.2-2.3
			c-0.8,0-1.4,0.3-1.5,0.3l-0.5,0.2l-0.2-0.6c-0.3-0.7-0.8-1.1-1.5-1.1c-1.7,0-4.1,1.9-4.9,2.6l-0.7,0.6l-0.2-1
			c-0.2-0.9-0.5-0.9-0.7-0.9c-1.3,0-3.8,2.8-5,4.6l-0.6,0.8l-0.4-1c-0.3-0.7-0.7-0.8-1-0.8c0,0-0.1,0-0.2,0c-0.6,0.8-1.5,1.5-2.8,2
			c0,1-0.4,3-3.3,4.6c0.2,1,0.2,3.1-2.2,6.2l-0.1,0.1c0,0-3.2,2.6-5.7,5.2c-0.5,0.5-0.9,1-1.4,1.5c0,0,0,0.1-0.1,0.1
			c0,0,0,0.1,0,0.1c0.9-0.4,2-0.9,3.1-1.3C514.7,326.8,518.8,325.9,519.4,325.7"/>
		<path class="st2" d="M510.1,325.3c2-1.9,4-3.5,4.3-3.8c2.7-3.5,1.8-5.3,1.8-5.3l-0.3-0.6l0-0.1l0.1-0.1l0.5-0.3
			c1-0.5,1.7-1,2.1-1.4c0.8-0.9,1-1.6,1-2.1c0-0.2,0-0.4,0-0.4l-0.1-0.4l-0.1-0.2l0.4-0.1l0.2-0.1c1.5-0.5,2.4-1.3,2.9-2.1
			c0.7-1.1,0.8-2.1,0.8-2.1l0-0.4l0.4-0.1c3-1.1,5.1-3.1,5.1-3.2l0.1-0.1l0.1,0c1.1-0.2,2.5-2.5,3.3-4.1c-0.3-0.7-0.9-1-1.7-1
			c-1.4,0-2.9,0.9-2.9,0.9l-0.3,0.2l-0.3-0.2c-0.7-0.5-1.3-0.8-2-0.8c-1.3,0-2.1,1.1-2.1,1.1L523,299l-0.5-0.4
			c-0.3-0.3-0.6-0.4-0.8-0.4c-1.4,0-3,3-3.4,4l-0.4,0.9l-0.6-0.8c-0.2-0.3-0.4-0.4-0.5-0.4c-0.8,0-1.9,2.9-2.5,5.5l-0.2,1l-0.7-0.7
			c-0.2-0.2-0.5-0.3-0.6-0.3c-1,5.8-3.6,14.8-5,19.8c-0.1,0.3-0.1,0.5-0.2,0.7c0.4-0.4,0.8-0.9,1.2-1.3
			C509.2,326.3,509.6,325.8,510.1,325.3"/>
		<path class="st2" d="M494,343l-0.1,0.1c-2.1,1.5-4,2.3-5.6,2.3c-1.1,0-1.8-0.4-2.2-0.7c-0.5,0.8-1,1.5-1.5,2.1
			c0.1,0.1,0.1,0.1,0.3,0.2l0.8,0.6l-0.8,0.5c-2.1,1.2-5,3.6-5,4.8c0,0.3,0.2,0.5,0.7,0.8l0.8,0.4l-0.7,0.7
			c-0.9,0.9-3.2,3.5-3.1,5.3c0,0.5,0.3,0.9,0.8,1.3l0.5,0.3l-0.3,0.5c-0.1,0.1-1.7,2.9,1.1,5.3l0.3,0.2l-0.1,0.4c0,0-0.6,3.3,0.5,5
			c0.3,0.5,0.7,0.7,1.3,0.9c1.4-1.5,3.4-4.1,3.3-5.5v-0.2l0.1-0.2c0,0,1.4-3.3,1.6-7.4l0-0.4l0.3-0.1c0.1,0,3.2-1.4,3.2-6.1l0-0.6
			h0.6c0.1,0,2.6-0.2,3.1-5.2l0.1-0.8l0.7,0.2c0,0,2.1,0.7,5-4c0.3-0.8,2.3-6.6,4.5-10.6C499.6,336.6,494.1,342.9,494,343"/>
		<path class="st2" d="M504.1,330.9c-5.1,0.6-13,3.7-13.1,3.8l-0.1,0c-0.8,0.1-1.6,0.2-2.3,0.2c-3.6,0-5.2-1.4-5.8-2.2
			c-1.6,1.1-3.2,1.6-4.6,1.6c-0.1,0-0.2,0-0.3,0c0,0.3,0.1,0.6,0.1,0.9l0.3,0.8h-0.8c-1.7,0-6.2,0.4-7.2,2.3c-0.3,0.5-0.3,1.2,0.1,2
			l0.3,0.7l-0.7,0.2c0,0-4.5,1.4-5.9,4.2c-0.4,0.9-0.5,1.8-0.2,2.8l0.1,0.5l-0.4,0.2c-0.1,0.1-3.4,2.5-2.2,7.9l0.1,0.3l-0.1,0.3
			c0,0.1-4,6-1.8,9c1.7-0.6,5.4-2.4,6.1-4.5l0.1-0.1l0.1-0.1c0,0,3.2-3,5.8-8.1l0.2-0.4l0.4,0.1c0,0,0.1,0,0.3,0
			c1.1,0,3.9-0.5,6.1-5.3l0.3-0.7l0.6,0.4c0,0,0.3,0.2,0.9,0.2c0.5,0,1.4-0.2,2.6-1.3c0.2-0.1,0.3-0.3,0.5-0.5
			c0.6-0.6,1.2-1.5,1.9-2.6l0.5-0.8l0.3,0.5l0.2,0.4c0,0,0.5,0.8,1.8,0.8c1.3,0,3-0.7,4.9-2.1c0.6-0.6,5.1-5.7,9.2-9.1
			c0.6-0.5,1.2-0.9,1.7-1.3c0.4-0.3,0.7-0.5,1.1-0.7c0,0-0.1,0-0.2-0.1C504.7,330.8,504.4,330.9,504.1,330.9"/>
		<path class="st2" d="M459.3,337.6l0.1,0c0,0,3.8-1.1,7.4-4l0.3-0.3l0.3,0.2c0,0,1.1,0.6,2.7,0.6c1.7,0,3.4-0.7,5-2.1l0.4-0.4
			l0.4,0.5c0,0,0.4,0.4,1.1,0.7c0.2,0.1,0.4,0.1,0.6,0.2c0.2,0,0.4,0.1,0.6,0.1h0.1c1.3,0,2.8-0.6,4.4-1.7l0.6-0.4l0.3,0.7
			c0,0,0.9,2.1,5.1,2.1c0.6,0,1.3,0,2.1-0.1c0.7-0.3,6.2-2.4,10.9-3.4c0.5-0.1,1-0.2,1.5-0.3c0,0-0.1,0-0.1,0
			c-1.5-0.6-3.2-1.1-4.7-1.6c-2.6-0.7-4.7-1.2-4.8-1.2l-0.1,0c-4.1-2-5-4.2-5.1-5.4c-1.7,0-2.9-0.4-3.8-0.9l-0.2-0.1
			c0,0-2.9-1.1-5.2-1.1c-1,0-1.7,0.2-2,0.6c-0.3,0.3-0.3,0.7-0.3,1.3l0.1,1l-0.9-0.4c0,0-3.8-1.6-6.3-1.6c-0.8,0-1.4,0.2-1.6,0.5
			c-0.2,0.2-0.2,0.7,0,1.3l0.2,0.9l-0.9-0.2c0,0-1.2-0.2-2.6-0.2c-2.2,0-3.7,0.5-4.4,1.3c-0.4,0.4-0.5,1-0.4,1.7l0,0.6l-0.6,0.1
			c-0.2,0-3.8,0.5-3.7,5.2v0.4l-0.3,0.2c0,0-3.2,1.9-3.8,4.3c-0.2,0.7-0.1,1.4,0.3,2c0.5,0.1,1.5,0.2,2.7,0.2c2.3,0,3.9-0.4,4.5-1.1
			L459.3,337.6z"/>
		<path class="st2" d="M505.1,329.2c-0.4-0.5-0.9-1-1.3-1.5c-2.5-2.6-5.7-5.1-5.7-5.2l-0.1-0.1c-2.4-3.1-2.4-5.2-2.2-6.2
			c-2.9-1.6-3.3-3.6-3.3-4.5c-1.3-0.5-2.2-1.3-2.8-2c-0.1,0-0.1,0-0.2,0c-0.3,0-0.7,0.1-1,0.8l-0.4,0.9l-0.6-0.8
			c-1.3-1.8-3.8-4.6-5-4.6c-0.1,0-0.5,0-0.7,0.9l-0.3,0.9l-0.7-0.6c0,0-2.9-2.6-4.9-2.6c-0.7,0-1.2,0.3-1.5,1.1l-0.2,0.6l-0.6-0.3
			c0,0-0.6-0.3-1.4-0.3c-1.3,0-2.4,0.8-3.2,2.3l-0.2,0.4l-0.4,0h-0.3c-0.7,0-3.1,0.1-4.2,1.3c-0.4,0.4-0.5,0.9-0.6,1.4
			c1.1,0.9,3.6,2.7,5.1,2.7c0.1,0,0.3,0,0.4-0.1l0.2-0.1l0.2,0.1c0,0,2.1,0.7,5,0.7c0.7,0,1.3-0.1,2-0.1l0.4-0.1l0.2,0.4
			c0.1,0.1,1.4,2.6,4.9,2.6c0.4,0,0.8,0,1.2-0.1l0.5-0.1l0.1,0.6c0,0,0.2,0.7,0.8,1.4c0.2,0.1,0.3,0.3,0.5,0.4
			c0.3,0.2,0.8,0.4,1.3,0.6c0.2,0,0.3,0.1,0.5,0.1c0.6,0.1,1.2,0.2,2,0.1l0.3,0l0.4,0l0,0.2l-0.1,0.6v0.1c0,0.3,0.1,2.6,4.4,4.7
			c0.6,0.1,4.7,1,8.3,2.4c1.1,0.4,2.2,0.9,3.1,1.3c0,0,0-0.1,0-0.1C505.2,329.2,505.2,329.2,505.1,329.2"/>
		<path class="st2" d="M500.5,307.5c-0.2,0-0.4,0.1-0.6,0.3l-0.7,0.7l-0.2-1c-0.5-2.6-1.7-5.5-2.5-5.5c-0.2,0-0.3,0.2-0.6,0.4
			l-0.6,0.8l-0.4-0.9c-0.4-1.1-2-4-3.4-4c-0.3,0-0.6,0.1-0.8,0.4l-0.5,0.4l-0.4-0.5c0,0-0.8-1.1-2.1-1.1c-0.6,0-1.3,0.3-2,0.8
			l-0.3,0.2l-0.3-0.2c0,0-1.5-0.9-2.9-0.9c-0.8,0-1.4,0.3-1.7,1c0.8,1.6,2.2,3.9,3.2,4.1l0.2,0l0.1,0.1c0,0,2.1,2.1,5.1,3.2l0.4,0.1
			l0,0.4c0,0.1,0.1,1.1,0.8,2.1c0.6,0.8,1.5,1.6,3,2.1l0.2,0.1l0.3,0.1l0,0.2l-0.1,0.4c0,0,0,0.1,0,0.4c0,0.4,0.2,1.2,1,2.1
			c0.5,0.5,1.1,1,2.1,1.4l0.5,0.3l0.2,0.1l0,0.1l-0.4,0.6c0,0-0.9,1.8,1.8,5.3c0.4,0.3,2.3,1.9,4.3,3.8c0.5,0.5,0.9,0.9,1.4,1.4
			c0.4,0.4,0.8,0.9,1.2,1.3c-0.1-0.2-0.1-0.5-0.2-0.7C504.1,322.3,501.5,313.3,500.5,307.5"/>
		<path class="st2" d="M511.6,307.5c0-0.4,0.1-0.7,0.2-1c0.3-1.7,0.4-2.9,0.3-3.4h-0.4l0.1-0.7c0.4-4.4,0.1-8-0.7-9
			c-0.2-0.2-0.3-0.2-0.4-0.2c-0.1,0-0.3,0-0.4,0.1l-0.7,0.4l-0.2-0.8c-0.7-3.4-1.9-5.4-2.6-6.3c-0.7,0.9-2,2.9-2.6,6.3l-0.1,0.8
			l-0.7-0.4c-0.2-0.1-0.3-0.1-0.4-0.1c-0.1,0-0.3,0-0.4,0.2c-0.9,1.1-1.2,4.7-0.7,9l0.1,0.7h-0.4c-0.1,0.5,0,1.7,0.3,3.4
			c0.1,0.3,0.1,0.6,0.2,1c0.1,0.5,0.2,1,0.3,1.6c0.9,4.1,2.4,9.8,4,15.6c0,0.1,0.1,0.2,0.1,0.4c0.2,0.6,0.3,1.1,0.5,1.7
			c0,0.1,0.1,0.1,0.1,0.2c0-0.1,0-0.2,0.1-0.2c0.1-0.6,0.3-1.1,0.5-1.7c0-0.1,0.1-0.3,0.1-0.4c1.7-5.8,3.1-11.5,4-15.6
			C511.4,308.5,511.5,308,511.6,307.5"/>
		<path class="st2" d="M525.1,423.3h-15.4l2.9-14.4l-2.6-2.6l3.3-13.1l-2.6-1.3l3.5-14.3l-3.2-2.3l2.8-12.2l-3.1-1.7l1.9-10.9
			l-2.6-1.7l0.4-11.7c0,0-1.1-3.7-3.7-5.9v0v0c-2.5,2-3.6,5.4-3.7,5.8l0,0.1l0.4,11.7l-2.6,1.7l2,10.9l-3.1,1.7l2.8,12.2l-3.1,2.3
			l3.5,14.3l-2.6,1.3l3.3,13.1l-2.6,2.6l3.3,14.5h-15.8c0,0-2,0.9-1.3,2.4c0.7,1.5,8.7,9.6,9.4,9.2c0.7-0.4,0.7-3.5,1.1-4
			c0.3-0.4,2.7,3.2,4.2,4c0,0,2.6-1.9,5-3.4c2.4,1.5,4,3.4,4,3.4c1.6-0.9,5-4.5,5.3-4.1c0.4,0.6,0.4,3.7,1.1,4.1
			c0.7,0.4,8.8-7.7,9.4-9.2C527.1,424.2,525.1,423.3,525.1,423.3"/>
		<path class="st2" d="M462.7,430.8c-11.1-6.3-35.5-13.3-54.8-6.1c0,0,25.8-2.2,60,20.6c25.6,17,50.3,41.1,55,45.7l6.9-6.8
			C502.4,454.9,473.7,437,462.7,430.8"/>
		<path class="st2" d="M563.3,488.2c0,0-3.6-4.2-7.7-0.1c-3.6,3.6-6.1,4.7-9.6,4.8c-4.6,0.1-10.5-2.6-11.9-5.7c0,0-0.4-1.1,0.3-2.2
			c1,0.2,2.1,0,3-0.8c1.4-1.2,1.6-3.2,0.5-4.5c-1.1-1.3-3.1-1.3-4.5,0c-1.1,1-1.5,2.5-1,3.7c-0.1,0.4-0.4,0.7-0.8,1
			c0-0.2,0-0.5-0.2-0.7c-0.3-0.3-0.7-0.3-1,0l-0.5,0.5l-6.9,6.8l-1.1,1.1c-0.3,0.3-0.3,0.8,0,1c0.1,0.1,0.2,0.1,0.3,0.2
			c-0.1,0-0.2,0.1-0.3,0.1c-0.9-0.1-1.8,0.2-2.5,0.9c-1.4,1.2-1.6,3.2-0.5,4.5c1.1,1.2,3.1,1.3,4.5,0c0.9-0.8,1.3-1.9,1.2-3
			c0.2-0.7,0.4-1.4,0.8-1.6c0.8-0.4,1.4,0,2.3,1c2.3,2.8,11.5,9,21.5,8.8C557.3,504,569,496.5,563.3,488.2"/>
		<path class="st2" d="M550.5,430.8c11.1-6.3,35.5-13.3,54.8-6.1c0,0-25.8-2.2-60,20.6c-25.6,17-50.3,41.1-55,45.7l-6.9-6.8
			C510.9,454.9,539.5,437,550.5,430.8"/>
		<path class="st2" d="M450,488.2c0,0,3.6-4.2,7.7-0.1c3.6,3.6,6.1,4.7,9.6,4.8c4.6,0.1,10.5-2.6,11.9-5.7c0,0,0.4-1.1-0.3-2.2
			c-1,0.2-2.2,0-3-0.8c-1.4-1.2-1.6-3.2-0.5-4.5c1.1-1.3,3.1-1.3,4.5,0c1.1,1,1.5,2.5,1,3.7c0.1,0.4,0.4,0.7,0.8,1
			c0-0.2,0-0.5,0.2-0.7c0.3-0.3,0.8-0.3,1.1,0l0.5,0.5l6.9,6.8l1.2,1.1c0.3,0.3,0.3,0.8,0,1c-0.1,0.1-0.2,0.1-0.3,0.2
			c0.1,0,0.2,0.1,0.3,0.1c0.9-0.1,1.8,0.2,2.6,0.9c1.4,1.2,1.6,3.2,0.5,4.5c-1.1,1.2-3.1,1.3-4.5,0c-0.9-0.8-1.3-1.9-1.2-3
			c-0.1-0.7-0.4-1.4-0.9-1.6c-0.8-0.4-1.4,0-2.3,1c-2.3,2.8-11.5,9-21.5,8.8C455.9,504,444.2,496.5,450,488.2"/>
		<path class="st0" d="M109.1,630.6c1.5-2.5,2.4-4,2.9-4.3c4.2,2.5,6.9,3.9,8,4.4l3.4-5.5l-8.7-5.4c-1.6,2.5-2.6,4-2.8,4.5
			c-3.5-1.8-6.2-3.3-8.2-4.5l-3.5,6.1c0.9,0.5,2.4,1.3,4.4,2.4C106.7,629.3,108.2,630.1,109.1,630.6"/>
		<path class="st0" d="M184.8,663.8c-0.9-0.2-1.7-0.4-2.2-0.8c-5.3-3.3-8.5-5.6-9.4-7c-0.5-0.6-0.8-1.3-0.8-2c0-1.5,1.9-2.8,5.9-4.1
			c3.2-1,5.5-1.5,6.8-1.5c1.6,0,3.1,0.3,4.6,0.9c3.2,1.7,5.7,3.1,7.3,4.2l0.3-1.1c-1.9-5.3-4.6-8.9-8.2-10.7
			c-0.8-0.4-1.6-0.6-2.4-0.6c-1.3,0-2.8,0.3-4.6,0.9c-3.1,0.9-6.2,3-9.3,6.1c-2.7,2.9-4.8,6.1-6.3,9.4v1.5v1.5
			c0.8,2.2,1.3,3.3,1.8,3.3h-8h-3.7h-22h-1.9c-2.3,0-3.8-0.5-4.7-1.5c-0.2-0.3-0.4-0.7-0.4-1.2c-1.6-13.7-2.8-23.9-3.6-30.7
			c-3.1,3.5-4.8,5.6-5.1,6.6c-0.1,1.9,0,3.3,0.3,4.3c-0.8,0.4-2.8,1.1-6,2.2c-2.6,0.9-4.5,1.8-5.6,2.8c-3.7,3.2-6.2,7.8-7.2,13.9
			c1.2,0.9,2.5,1.6,4.1,2.2c0.8,0.3,1.9,0.7,3.4,1c5.4,1.4,8.3,2.2,8.8,2.2c0.6,0,1.1-0.3,1.4-0.8c0.5-0.9,1-1.8,1.4-2.7
			c0.8-1.3,1.6-2.1,2.4-2.4c0.3,0.7,0.5,1.4,0.6,2.1c0.3,3.2,0.7,5.1,0.9,5.6c0.6,1.4,1.5,2.5,2.8,3.2c0.7,0.3,1.3,0.5,1.8,0.5h4.3
			h2.2h22h3.7h42.2l3.6-7.4h-18.6H184.8z M117.9,657.4c-0.7,0-1.7-0.1-2.9-0.3c-1.3-0.2-3-0.7-5.4-1.6c-1.4-0.4-2.7-1.2-3.7-2.3
			c1.1-0.9,2.9-1.7,5.3-2.5c2.5-0.8,4.2-1.5,5.1-2.1c1.4-1.6,2.4-3.1,3.2-4.5l2.2,13.3H117.9z"/>
		<path class="st0" d="M266.8,631.1c0.9-1.7,1.5-3,2-3.8l-10.1-5.2l-3.8,7.2c3.7,2.3,7,4.2,10,5.6
			C265.2,634,265.9,632.8,266.8,631.1"/>
		<path class="st0" d="M393.6,624.3c-2.6-1.4-4.6-2.4-6-3.2c-0.6-0.4-0.9-0.9-0.9-1.5l0.3-1.3c0.1-0.8,0.1-1.3,0-1.7h-1.3
			c-2.2,3.5-3.8,6.2-4.7,8.2c-0.3,0.4-0.4,1-0.4,1.8c0,0.7,0.1,1.2,0.4,1.4c0.7,0.8,1.2,1.4,1.7,1.8c1.2,7.8,2,13.8,2.6,18.1
			c0.3,1.5,0.5,3.4,0.8,5.9c0.5,4.1,0.8,6.5,0.8,7.3c0,1.1-0.1,1.8-0.2,2.1c-0.1,0.3-0.1,0.5-0.2,0.6c-1.5,0-12.9,0-23.4,0.1h-3.3
			c0.3-0.4,0.9-1.5,2-3.3c0.9-1.3,1.3-2.1,1.3-2.3c0-3.1-2.3-6.1-7-8.9c-4.2-2.6-7.8-3.8-11-3.8c-4.5,0-10.9,2.5-19.2,7.4
			c-10.1,6.1-17.2,9.7-21.2,11h-4.9v0.1c-2.1-0.1-3.4-0.4-3.8-1.1c1.2-1.4,2-3.8,2.4-7.1c0.3-2.1,0.5-4.3,0.6-6.5
			c-2.5,2.4-4.8,4.8-6.9,7.1c0,1.4-0.1,2.7-0.1,4c-0.2,2.5-1.1,3.7-2.7,3.7h-17.8v-0.1h-1.8c-3.1-0.3-4.6-1.5-4.6-3.6l3.5-13.5V643
			c-1.4,0.9-3,2.3-4.8,4.1c-1.9,1.8-2.9,3.1-3.1,3.9c-0.1,0.3-0.3,2.3-0.8,6.2c-0.3,3.1-1,5.2-1.9,6.5h-22.9h-1.7
			c-4.7,0-7.2-1.2-7.6-3.7c-1.2-7.9-2.2-16.2-2.8-24.6c-1.1-15.1-1.8-23.7-2-25.6c-2.9,3.4-4.6,5.6-5.2,6.7
			c-0.1,0.1-0.1,0.6-0.1,1.6l4.2,53h13h2.3H259c0.6-1.5,1.4-3,2.3-4.3c2.1,2.9,3.5,4.3,4.1,4.3h2.6h3.6h16.4c0.6,0,1.7-0.9,3.4-2.5
			c0.8,1.1,1.4,1.9,1.8,2.5h5.7h0.9h3.5h0.2h1h58.5h3.2h21.7c1-1.4,1.7-3,2-5c0.3-1.7,0.5-3.4,0.8-5.1c0.3-1.4,0.4-2.7,0.4-3.9
			l-2.3-24.6l0.5,0.4C390.8,630.2,392.2,627.3,393.6,624.3 M353.7,663.1c-0.7,0.4-1.2,0.7-1.5,0.7h-38c4.2-2.2,8.4-4.4,12.6-6.6
			c5.3-2.7,9.8-4.1,13.5-4.1c1.8,0,3.5,0.2,5.1,0.8c0.8,0.3,2.5,1.3,4.8,3.1c3,2.1,4.5,3.8,4.5,4.9
			C354.8,662.2,354.4,662.7,353.7,663.1"/>
		<path class="st0" d="M409.4,611.4c-3.8,6-5.7,10.1-5.7,12.3l4.7,47.4c2.5-4.9,3.7-9.3,3.7-13.1L409.4,611.4z"/>
		<path class="st0" d="M444.3,649.7c-0.4-1-1.2-2.4-2.5-4.1c-1.5-2-2.8-3.1-3.9-3.1c-1.8,0-4.3,2.2-7.1,6.7c-2.9,4.5-4.3,7.8-4.3,10
			c0,2.4,0.5,4.4,1.5,6.2c1.4,2.4,3.3,3.6,5.9,3.6c3.5,0,6.4-2.3,8.7-6.9l0.4,0.5c0,0.4,0,1,0.1,1.8c0.1,0.8,0.1,1.3,0.1,1.3
			c0,5.8-5.1,12-15.3,18.7c-3.2,2.1-6,3.2-8.4,3.2c-0.2,0-1.7-0.3-4.7-0.9c-3-0.6-4.6-0.9-4.9-0.9c-0.6,0-1,0.4-1.3,1.2
			c1,0.8,3.9,1.8,8.5,3.1c2,0.5,4.2,1,6.7,1.6h3.6c3.9,0,7.5-2.2,10.9-6.6c2.8-3.4,4.9-7.6,6.4-12.3c0.8-4.1,1.2-7.1,1.4-9
			c0.2-1.1,0.3-2.1,0.3-2.8c0-1.6-0.3-3.9-0.9-6.9C445.2,652.1,444.7,650.7,444.3,649.7 M436.4,660.8c-1.2,0-2.5-0.2-3.8-0.8
			c-1.8-0.8-2.7-1.8-2.7-3c0-0.9,0.7-2,2.2-3.4c1.4-1.5,2.6-2.2,3.4-2.2c1.5,0,2.8,1.2,4,3.7c0.8,1.5,1.2,2.9,1.4,4.2
			C439.7,660.3,438.2,660.8,436.4,660.8"/>
		<path class="st0" d="M486,632.7c3.7,2.4,6.5,4,8.1,4.9c1.1-2,2.3-4,3.5-6c-0.9-0.5-2.3-1.3-4.3-2.5c-1.9-1.1-3.3-2-4.3-2.5
			c-1.6,2.4-2.5,3.8-2.8,4.3c-3.5-2.2-6.1-3.8-7.9-4.9c-1.4,2-2.6,4-3.7,6.1l8.8,5.1L486,632.7z"/>
		<path class="st0" d="M498.8,659.5c0-0.2,0.2-1,0.7-2.4c0.5-1.5,0.7-2.4,0.7-2.7c0-2.4-1-4.6-3.1-6.3c-2.8-2.3-5.6-4.5-8.3-6.8
			c-3,3.9-6,7.8-8.9,11.7c-3.8,5.3-5.8,9.4-5.8,12.1c0,4,2.7,6,8,6c3.2,0,6.4-1,9.7-3.1C495.7,665.8,498,663,498.8,659.5
			 M484.8,663.2c-2.9,0-4.3-1.1-4.3-3.3c0-1.5,0.7-3.2,2.2-5.1c1.3-1.5,2.5-2.9,3.8-4.3c1.4,0.6,3,1.8,4.9,3.8
			c1.9,1.9,2.9,3.4,2.9,4.5c0,1.4-1.3,2.5-3.8,3.4C488.4,662.9,486.6,663.2,484.8,663.2"/>
		<path class="st0" d="M524.7,649.2c-1.9-2.9-4.3-5.2-7.1-6.9c-0.9,3.7-1.6,6.7-2,8.8c3.7,2.7,5.6,4.2,5.8,4.5
			c2.3,2.3,3.5,4.1,3.7,5.5c0.1,0.2,0.1,0.6,0.1,1.2c0,0.8-0.4,2.1-1.1,4c-0.8,1.9-2.5,4.3-5.2,7.2c-2.7,2.9-5.1,5-7.2,6.4
			c-3.4,2.2-6.1,3.3-8.2,3.3c-0.6,0-1.3-0.1-2.1-0.3c-1.2-0.3-3-1-5.3-1.9c-2.3-0.9-3.6-1.4-3.8-1.4c-0.3,0-0.6,0.1-0.8,0.4v1.1
			c1.8,1.6,4.2,3,7.3,4.2c0.6,0.2,2.9,0.9,6.8,2.2c1.9,0.5,3.3,0.8,4.5,0.8c1.2,0,2.5-0.3,4.1-1c5.4-2.6,9.6-8,12.7-16.2
			c0.9-2.3,1.4-5.1,1.4-8.4c0-1.3-0.1-3-0.4-5.1C527.7,654.9,526.6,652.1,524.7,649.2"/>
		<path class="st0" d="M607.4,680.8c-0.8,1.4-1.3,2.3-1.7,2.9l8.3,5.1c1.4-2.5,2.6-4.6,3.7-6.2l-8.6-4.7
			C608.7,678.5,608.1,679.4,607.4,680.8"/>
		<path class="st0" d="M652.4,635.8l7.9,4.6c1.4-2,2.6-4,3.7-6.1c-0.9-0.5-2.4-1.3-4.4-2.4c-2-1.1-3.5-1.9-4.4-2.4
			c-1.4,2.2-2.2,3.6-2.6,4.1c-3.7-2-6.4-3.6-8.2-4.6c-0.9,1.4-2.1,3.4-3.4,6.2l8.5,5C650.3,638.7,651.3,637.2,652.4,635.8"/>
		<path class="st0" d="M698.1,624.3c-2.6-1.4-4.6-2.4-6-3.2c-0.6-0.4-0.9-0.9-0.9-1.5l0.3-1.3c0.1-0.8,0.1-1.3,0-1.7h-1.3
			c-2.2,3.5-3.8,6.2-4.7,8.2c-0.3,0.4-0.4,1-0.4,1.8c0,0.7,0.1,1.2,0.4,1.4c0.7,0.8,1.2,1.4,1.7,1.8c1.2,7.8,2,13.8,2.5,18.1
			c0.3,1.5,0.5,3.4,0.8,5.9c0.5,4.1,0.7,6.5,0.7,7.3c0,1.1,0,1.8-0.2,2.1c-0.1,0.3-0.1,0.5-0.2,0.6c-1.5,0-15.5,0-25.7,0.1
			c-1.1,0-1.8-0.3-2.2-1l2-13.4v-3.4c-3.2,3.1-5.5,5.7-6.8,7.7c-0.2,0.3-0.4,0.8-0.4,1.6v8.6h-17.1h-7.5h-16.7
			c-0.6,0-1.2-0.5-1.7-1.3c-0.5-0.9-0.9-1.7-1-2.4c2.6-1.3,5.3-1.9,8-1.9h6.5c1.4-3.4,2.5-5.9,3-7.7h-4.4c-3.7,0-9-1-15.8-2.9
			c-6.8-2-11.3-2.9-13.6-2.9c-0.2,0-0.6,0-1.1,0c-0.6,0.1-1,0-1.3,0c-1.4,0-3.2,1.3-5.4,3.8c-2.2,2.6-3.4,4.5-3.4,6v1.9
			c1.4-0.9,2.5-1.7,3.2-2.2c1.9-1.1,3.7-1.6,5.1-1.6c1.9,0,7.2,1.2,15.9,3.7c-2,1.9-4.7,3.6-8.1,5.1c-3.7,1.6-6.7,2.4-9.2,2.4h-34.8
			h-1.6c-4.7,0-7.2-1.2-7.7-3.7c-1.2-8-2.1-16.2-2.8-24.6c-1.1-15.1-1.8-23.7-2-25.6c-2.9,3.4-4.6,5.6-5.2,6.7
			c-0.1,0.1-0.1,0.6-0.1,1.6l4.2,53h13h2.3h37.3c1.2,0,2.6-0.6,4.3-1.9c1.4-0.9,2.7-1.9,3.9-2.8c2.6-1.6,4.7-3.1,6.4-4.5
			c0.5,2.5,0.8,4.4,0.9,5.5c0.2,0.4,0.6,1.2,1.2,2.2c0.6,1,1.1,1.5,1.5,1.5h19.2h7.5h13.4c1.6-2.4,2.6-3.8,3.1-4.3
			c0.8,1.3,1.3,2.2,1.5,2.8c0.7,1,1.5,1.5,2.3,1.5h3.7h2h25.6c1-1.4,1.7-3,2-5c0.2-1.7,0.5-3.4,0.7-5.1c0.3-1.4,0.4-2.7,0.4-3.9
			l-2.3-24.6l0.5,0.4C695.3,630.2,696.7,627.3,698.1,624.3"/>
		<path class="st0" d="M708.1,623.7l4.7,47.4c2.4-4.9,3.7-9.3,3.7-13.1l-2.7-46.6C710,617.4,708.1,621.5,708.1,623.7"/>
		<path class="st0" d="M758.8,641.3c-3,3.9-6,7.8-8.9,11.7c-3.8,5.3-5.7,9.4-5.7,12.1c0,4,2.7,6,8,6c3.1,0,6.4-1,9.7-3.1
			c3.8-2.3,6.1-5.1,6.9-8.5c0-0.2,0.2-1,0.7-2.4c0.5-1.5,0.7-2.4,0.7-2.7c0-2.5-1-4.6-3.1-6.4C764.3,645.8,761.5,643.5,758.8,641.3
			 M760.4,662.2c-2,0.7-3.9,1-5.6,1c-2.9,0-4.3-1.1-4.3-3.3c0-1.5,0.7-3.2,2.2-5.1c1.3-1.5,2.5-2.9,3.8-4.4c1.4,0.6,3,1.8,4.9,3.8
			c1.9,1.9,2.9,3.4,2.9,4.5C764.3,660.1,763,661.3,760.4,662.2"/>
		<path class="st0" d="M756,632.7c3.7,2.4,6.5,4,8.2,4.9c1.1-2,2.3-4,3.5-6c-0.9-0.5-2.4-1.3-4.3-2.5c-1.9-1.1-3.3-2-4.3-2.5
			c-1.6,2.4-2.6,3.8-2.8,4.3c-3.5-2.2-6.1-3.8-7.9-4.9c-1.4,2-2.6,4-3.7,6.1l8.8,5.1L756,632.7z"/>
		<path class="st0" d="M804.7,649.2c-1.9-2.9-4.3-5.2-7.1-6.9c-0.9,3.7-1.6,6.7-2,8.8c3.6,2.7,5.6,4.2,5.8,4.5
			c2.3,2.3,3.5,4.1,3.7,5.5c0.1,0.2,0.1,0.6,0.1,1.2c0,0.8-0.4,2.1-1.1,4c-0.8,1.9-2.5,4.3-5.2,7.2c-2.7,2.9-5.1,5-7.2,6.4
			c-3.4,2.2-6.2,3.3-8.3,3.3c-0.6,0-1.3-0.1-2-0.3c-1.2-0.3-3-1-5.3-1.9c-2.3-0.9-3.6-1.4-3.8-1.4c-0.3,0-0.6,0.1-0.8,0.4v1.1
			c1.8,1.6,4.2,3,7.3,4.2c0.6,0.2,2.8,0.9,6.7,2.2c1.9,0.5,3.4,0.8,4.5,0.8c1.2,0,2.5-0.3,4.1-1c5.4-2.6,9.6-8,12.8-16.2
			c0.9-2.3,1.4-5.1,1.4-8.4c0-1.3-0.1-3-0.4-5.1C807.7,654.9,806.6,652.1,804.7,649.2"/>
		<path class="st0" d="M819.2,623.7l4.7,47.4c2.5-4.9,3.7-9.3,3.7-13.1l-2.7-46.6C821.1,617.4,819.2,621.5,819.2,623.7"/>
		<path class="st0" d="M853.5,634.4l3.5-6l-8.7-5c-1,2-2.1,4-3.3,6.1l7.6,4.8H853.5z"/>
		<path class="st0" d="M855.2,641.2c-0.7,4.1-1.3,7.1-1.8,9.1c6.5,5,9.7,8.6,9.7,10.8c0,3.6-2.7,8.1-8.1,13.3
			c-5.4,5.2-10,7.8-13.7,7.8c-1.7,0-5.2-1.2-10.6-3.6h-1.3v1.5c0.8,1.1,3.4,2.5,7.9,4.3c4.5,1.7,8,2.6,10.4,2.6
			c4.4,0,8.6-3,12.6-8.9c3.8-5.7,5.7-11.1,5.7-16.3C866.1,653.2,862.5,646.3,855.2,641.2"/>
		<path class="st0" d="M898.9,654.1c-0.6-2-1.1-3.4-1.5-4.4c-0.4-1-1.2-2.4-2.5-4.1c-1.5-2-2.8-3.1-3.8-3.1c-1.9,0-4.3,2.2-7.1,6.7
			c-2.9,4.5-4.3,7.8-4.3,10c0,2.4,0.5,4.4,1.5,6.2c1.4,2.4,3.4,3.6,5.9,3.6c3.5,0,6.4-2.3,8.7-6.9l0.4,0.5c0,0.4,0,1,0.1,1.8
			c0.1,0.8,0.1,1.3,0.1,1.3c0,5.8-5.1,12-15.3,18.7c-3.2,2.1-6,3.2-8.4,3.2c-0.2,0-1.8-0.3-4.7-0.9c-3-0.6-4.6-0.9-4.8-0.9
			c-0.6,0-1,0.4-1.3,1.2c1,0.8,3.9,1.8,8.5,3.1c1.9,0.5,4.2,1,6.8,1.6h3.5c3.9,0,7.6-2.2,11-6.6c2.8-3.4,4.9-7.6,6.4-12.3
			c0.8-4.1,1.2-7.1,1.4-9c0.2-1.1,0.3-2.1,0.3-2.8C899.8,659.3,899.5,657,898.9,654.1 M889.6,660.8c-1.3,0-2.6-0.2-3.8-0.8
			c-1.8-0.8-2.7-1.8-2.7-3c0-0.9,0.7-2,2.2-3.4c1.5-1.5,2.6-2.2,3.4-2.2c1.5,0,2.9,1.2,3.9,3.7c0.8,1.5,1.2,2.9,1.4,4.2
			C892.8,660.3,891.3,660.8,889.6,660.8"/>
		<path class="st0" d="M105.2,736.4h-4.9v-36.1h5.4l10.5,24.1c0.8-2,1.6-4.1,2.4-6.1c0.8-2,1.6-4,2.4-6c0.8-2,1.6-4,2.4-6
			c0.8-2,1.6-4,2.4-6.1h5.3v36.1H126V715l0.1-3.3c-0.2,0.6-0.4,1.2-0.7,1.8c-0.2,0.6-0.4,1.1-0.6,1.7l-6.4,16h-5.3l-6.9-16l-1.1-3
			l0.1,2.8V736.4z"/>
		<path class="st0" d="M137.6,700.7h5.2v5.3h-5.2V700.7z M137.6,710.4h5.2v26h-5.2V710.4z"/>
		<path class="st0" d="M154.1,736.4h-5.2v-26h5.2v3.1c0.3-0.4,0.6-0.7,0.9-1c0.3-0.3,0.6-0.5,0.8-0.8c0.4-0.4,0.9-0.7,1.3-0.9
			c0.5-0.3,0.9-0.5,1.4-0.6c1-0.4,2.1-0.5,3.2-0.5c1.7,0,3.1,0.3,4.5,1c1.3,0.7,2.3,1.7,3.1,3v0c0.7,1.3,1.1,3.4,1.1,6.2v16.4h-5.2
			v-14.6c0-2.1-0.1-3.7-0.4-4.6c-0.3-0.8-0.8-1.4-1.5-1.9c-0.4-0.2-0.8-0.4-1.2-0.5c-0.4-0.1-0.9-0.2-1.3-0.2
			c-0.5,0-1.1,0.1-1.6,0.3c-0.5,0.2-1.1,0.4-1.6,0.7c-0.5,0.3-0.9,0.7-1.3,1.2c-0.4,0.5-0.8,1-1.1,1.6c-0.6,1.2-1,3-1,5.2V736.4z"/>
		<path class="st0" d="M176.5,700.7h5.2v5.3h-5.2V700.7z M176.5,710.4h5.2v26h-5.2V710.4z"/>
		<path class="st0" d="M186.3,728.7h5.2v0.6c0,0.9,0.4,1.6,1.1,2.3h0c0.7,0.6,2,0.9,3.8,0.9c1.6,0,2.9-0.4,3.8-1.1
			c0.9-0.7,1.4-1.6,1.4-2.5c0-1.3-0.9-2.2-2.7-2.7l-2.1-0.7l-1.4-0.4l-2.9-0.9c-3.5-1.3-5.3-3.4-5.3-6.5c0-1,0.2-2,0.7-3
			c0.4-0.9,1.1-1.8,1.9-2.6c0.9-0.8,1.9-1.4,3.1-1.8c1.2-0.4,2.7-0.6,4.3-0.6c3.3,0,5.6,0.7,7,2c1.4,1.4,2.1,2.9,2.1,4.6v0.6H201
			v-0.6c0-0.3-0.1-0.6-0.3-0.9c-0.2-0.3-0.5-0.5-0.8-0.7c-0.4-0.2-0.8-0.3-1.3-0.4c-0.5-0.1-1.1-0.2-1.7-0.2c-1.5,0-2.7,0.3-3.5,0.9
			c-0.8,0.6-1.1,1.3-1.1,2.1c0,0.6,0.3,1.1,0.8,1.6c0.5,0.4,1.4,0.8,2.5,1.1l2,0.5l1.5,0.4h0c1,0.3,1.8,0.5,2.5,0.7
			c0.7,0.2,1.1,0.4,1.4,0.5c0.3,0.1,0.5,0.3,0.8,0.4c0.3,0.2,0.5,0.3,0.8,0.5c0.8,0.6,1.4,1.3,1.7,2.1c0.4,0.8,0.6,1.8,0.6,2.9
			c0,2.5-0.9,4.6-2.7,6.3c-1.8,1.7-4.4,2.5-7.7,2.5c-2.2,0-4-0.3-5.4-1c-1.4-0.7-2.6-1.5-3.4-2.7c-0.9-1.2-1.3-2.5-1.3-4.1V728.7z"
			/>
		<path class="st0" d="M228.4,736.2c-1.2,0.3-2.2,0.5-3.1,0.7c-0.9,0.1-1.6,0.2-2.1,0.2c-1.7,0-3.2-0.3-4.5-1
			c-1.3-0.7-2.3-1.6-3-2.9c-0.7-1.3-1-3.3-1-5.9v-12.3h-4.3v-4.5h4.3v-5.9h5.2v5.9h7.3v4.5h-7.3V726c0,1,0,1.9,0.1,2.7
			c0.1,0.7,0.2,1.3,0.3,1.7c0.3,0.7,0.7,1.2,1.4,1.6c0.6,0.4,1.4,0.5,2.4,0.5c0.8,0,2.2-0.3,4.3-1V736.2z"/>
		<path class="st0" d="M238.4,736.4h-5.2v-26h5.2v3.1c0.6-0.8,1.3-1.5,2-2c0.7-0.5,1.4-0.9,2.2-1.2c1-0.4,2-0.6,3-0.6
			c0.9,0,1.8,0.2,2.8,0.5v5.5c-0.7-0.4-1.4-0.6-2-0.8c-0.6-0.2-1.2-0.3-1.7-0.3c-1.4,0-2.8,0.6-4.2,1.9h0c-1.4,1.3-2,3.6-2,6.9
			V736.4z"/>
		<path class="st0" d="M259.7,734.8l-11-24.4h5.8l8,17.7c1.2-2.9,2.5-5.9,3.7-8.9c1.2-3,2.5-5.9,3.7-8.8h5.4l-10.8,25.7
			c-0.3,0.8-0.7,1.5-1,2.2c-0.3,0.7-0.7,1.4-1,1.9c-0.3,0.6-0.6,1.1-0.9,1.6c-0.3,0.5-0.5,0.8-0.8,1.1c-0.5,0.6-1,1.1-1.6,1.5
			c-0.5,0.4-1.1,0.7-1.7,1c-0.6,0.2-1.2,0.4-2,0.5c-0.8,0.1-1.6,0.2-2.5,0.2h-3.6v-4.5h2.9c1.1,0,2-0.1,2.8-0.4
			c0.8-0.3,1.4-0.7,2-1.3c0.5-0.6,1.2-2,2.2-4.3L259.7,734.8z"/>
		<path class="st0" d="M305.8,737.1c-3.4,0-6.3-1.2-8.7-3.5c-2.4-2.3-3.6-5.7-3.6-10.2c0-4.5,1.2-7.9,3.6-10.2
			c2.4-2.3,5.3-3.5,8.7-3.5c3.4,0,6.3,1.2,8.7,3.5c2.4,2.3,3.6,5.7,3.6,10.2c0,4.5-1.2,7.9-3.6,10.2
			C312.1,735.9,309.2,737.1,305.8,737.1 M305.8,732.5c2,0,3.7-0.8,5-2.4c1.3-1.7,1.9-3.9,1.9-6.7c0-2.8-0.7-5-1.9-6.7
			c-1.3-1.6-2.9-2.4-5-2.4c-1,0-2,0.2-2.8,0.6c-0.8,0.4-1.6,1-2.2,1.8c-0.6,0.8-1.1,1.8-1.4,3c-0.3,1.1-0.5,2.4-0.5,3.7
			c0,1.4,0.2,2.6,0.5,3.7c0.3,1.1,0.8,2.1,1.4,3c0.6,0.8,1.4,1.4,2.2,1.8C303.9,732.3,304.8,732.5,305.8,732.5"/>
		<path class="st0" d="M330.9,736.4h-5.2v-21.5h-3.6v-4.5h3.6v-0.6c0-3.8,0.8-6.4,2.4-8c1.6-1.6,3.7-2.4,6.4-2.4
			c0.5,0,1.1,0,1.7,0.1c0.7,0.1,1.4,0.2,2.3,0.3v4.5c-0.8-0.1-1.5-0.2-2-0.2c-0.6-0.1-1-0.1-1.3-0.1c-1.3,0-2.3,0.3-3.1,0.9v0
			c-0.8,0.6-1.2,2-1.2,4.3v1.4h7.3v4.5h-7.3V736.4z"/>
		<path class="st0" d="M378.7,727.7h5.3v0.8c0,0.8-0.1,1.5-0.4,2.3c-0.3,0.7-0.6,1.5-1.1,2.3c-0.5,0.7-1.1,1.4-1.8,1.9
			c-0.7,0.6-1.5,1-2.3,1.4c-0.8,0.3-1.8,0.6-2.8,0.8c-1,0.2-2.1,0.3-3.2,0.3c-4.6,0-8.4-1.6-11.3-4.8c-2.9-3.2-4.4-7.9-4.4-14.3
			c0-3.1,0.4-5.8,1.1-8.2c0.8-2.4,1.8-4.4,3.2-6c1.5-1.6,3.1-2.8,5-3.6c1.9-0.8,4-1.2,6.3-1.2c2.3,0,4.3,0.4,6,1.1
			c1.7,0.7,3.1,1.8,4.1,3.3c0.5,0.8,0.9,1.5,1.1,2.3c0.3,0.8,0.4,1.5,0.4,2.2v0.8h-5.3v-0.8c0-0.4-0.1-0.7-0.2-1.1
			c-0.1-0.4-0.3-0.7-0.5-1.1c-0.2-0.3-0.5-0.6-0.9-0.9c-0.4-0.3-0.8-0.5-1.2-0.7c-0.5-0.2-1-0.3-1.6-0.4c-0.6-0.1-1.2-0.2-1.8-0.2
			c-3.4,0-5.9,1.3-7.5,4c-1.7,2.8-2.5,6.3-2.5,10.5c0,4.3,0.8,7.8,2.5,10.6c1.6,2.6,4.1,4,7.5,4c2.3,0,3.9-0.5,4.8-1.4
			c0.9-0.9,1.4-1.9,1.4-3V727.7z"/>
		<path class="st0" d="M400.1,737.1c-3.4,0-6.3-1.2-8.7-3.5c-2.4-2.3-3.6-5.7-3.6-10.2c0-4.5,1.2-7.9,3.6-10.2
			c2.4-2.3,5.3-3.5,8.7-3.5c3.4,0,6.3,1.2,8.7,3.5c2.4,2.3,3.6,5.7,3.6,10.2c0,4.5-1.2,7.9-3.6,10.2
			C406.4,735.9,403.4,737.1,400.1,737.1 M400.1,732.5c2,0,3.7-0.8,5-2.4c1.3-1.7,1.9-3.9,1.9-6.7c0-2.8-0.6-5-1.9-6.7
			c-1.3-1.6-2.9-2.4-5-2.4c-1,0-1.9,0.2-2.8,0.6c-0.8,0.4-1.6,1-2.2,1.8c-0.6,0.8-1.1,1.8-1.4,3c-0.3,1.1-0.5,2.4-0.5,3.7
			c0,1.4,0.2,2.6,0.5,3.7c0.3,1.1,0.8,2.1,1.4,3c0.6,0.8,1.4,1.4,2.2,1.8C398.1,732.3,399,732.5,400.1,732.5"/>
		<path class="st0" d="M423.2,736.4H418v-26h5.2v3.2c0.3-0.4,0.5-0.7,0.8-1c0.3-0.3,0.5-0.6,0.7-0.8c0.4-0.3,0.8-0.6,1.3-0.9
			c0.5-0.3,0.9-0.5,1.4-0.6c1-0.4,2-0.5,3.1-0.5c1.1,0,2.1,0.2,3.1,0.5c1,0.3,1.9,0.9,2.6,1.5h0c0.6,0.5,1.2,1.4,1.7,2.5
			c0.7-1,1.4-1.9,2.1-2.4c0.4-0.4,0.9-0.7,1.3-0.9c0.5-0.3,0.9-0.5,1.4-0.7c0.9-0.4,1.9-0.5,3-0.5c1.5,0,2.9,0.3,4.1,1.1
			c1.2,0.7,2.2,1.7,2.8,3.1v0c0.7,1.3,1,3.4,1,6.5v16.1h-5.2V722c0-2.9-0.2-4.7-0.5-5.3c-0.3-0.7-0.7-1.2-1.3-1.6
			c-0.5-0.3-1.1-0.5-1.9-0.5c-1.1,0-2.1,0.4-3.1,1c-1,0.7-1.8,1.7-2.3,2.9c-0.6,1.2-0.9,3-0.9,5.2v12.7h-5.2V722
			c0-1.4,0-2.6-0.1-3.5c-0.1-0.9-0.2-1.5-0.3-1.9c-0.3-0.7-0.7-1.2-1.3-1.5c-0.3-0.2-0.6-0.3-0.9-0.4c-0.3-0.1-0.7-0.1-1-0.1
			c-1,0-2,0.4-3,1.1c-1,0.7-1.8,1.7-2.4,3c-0.6,1.2-0.9,2.9-0.9,5.1V736.4z"/>
		<path class="st0" d="M465.8,736.4h-5.2v-26h5.2v3.2c0.3-0.4,0.5-0.7,0.8-1c0.3-0.3,0.5-0.6,0.7-0.8c0.4-0.3,0.8-0.6,1.3-0.9
			c0.5-0.3,0.9-0.5,1.4-0.6c1-0.4,2-0.5,3.1-0.5c1.1,0,2.1,0.2,3.1,0.5c1,0.3,1.9,0.9,2.6,1.5h0c0.6,0.5,1.2,1.4,1.7,2.5
			c0.7-1,1.4-1.9,2.1-2.4c0.5-0.4,0.9-0.7,1.3-0.9c0.4-0.3,0.9-0.5,1.4-0.7c0.9-0.4,1.9-0.5,3-0.5c1.5,0,2.9,0.3,4.1,1.1
			c1.2,0.7,2.2,1.7,2.8,3.1v0c0.7,1.3,1,3.4,1,6.5v16.1H491V722c0-2.9-0.2-4.7-0.5-5.3c-0.3-0.7-0.7-1.2-1.3-1.6
			c-0.5-0.3-1.2-0.5-1.9-0.5c-1.1,0-2.1,0.4-3.1,1c-1,0.7-1.8,1.7-2.3,2.9c-0.6,1.2-0.9,3-0.9,5.2v12.7h-5.2V722
			c0-1.4,0-2.6-0.1-3.5c-0.1-0.9-0.2-1.5-0.3-1.9c-0.3-0.7-0.7-1.2-1.3-1.5c-0.3-0.2-0.6-0.3-1-0.4c-0.3-0.1-0.7-0.1-1-0.1
			c-1,0-2,0.4-3,1.1c-1,0.7-1.8,1.7-2.4,3c-0.6,1.2-0.9,2.9-0.9,5.1V736.4z"/>
		<path class="st0" d="M519.2,728.9h5.2v0.8c0,1.2-0.5,2.4-1.4,3.7c-0.9,1.2-2.2,2.1-3.7,2.8c-1.5,0.6-3.3,0.9-5.2,0.9
			c-4,0-7-1.3-9.2-3.9c-2.1-2.5-3.2-5.8-3.2-9.6c0-4,1.1-7.3,3.4-9.9c2.3-2.6,5.2-3.9,8.8-3.9c1,0,2,0.1,2.9,0.3
			c0.9,0.2,1.8,0.5,2.5,1c0.8,0.4,1.5,1,2.1,1.7c0.7,0.7,1.2,1.5,1.7,2.4c0.9,1.8,1.4,4.3,1.4,7.5v1.9h-17.7c0,1.2,0.3,2.2,0.6,3.1
			c0.4,0.9,0.8,1.8,1.5,2.6c0.7,0.8,1.5,1.4,2.4,1.8c0.9,0.4,2,0.6,3.1,0.6c0.9,0,1.6-0.1,2.2-0.2c0.6-0.2,1.1-0.4,1.5-0.7
			c0.3-0.3,0.6-0.6,0.8-0.9c0.2-0.3,0.3-0.7,0.3-1V728.9z M519.6,720.3c0-1-0.3-2.1-0.8-3.1c-0.5-1-1.2-1.7-2.1-2.2
			c-0.5-0.2-1-0.4-1.5-0.5c-0.5-0.1-1.1-0.2-1.7-0.2c-1.4,0-2.7,0.6-3.9,1.7c-0.6,0.5-1,1.2-1.4,1.8c-0.4,0.7-0.7,1.5-0.9,2.5H519.6
			z M519.6,720.3L519.6,720.3l0.5-0.1l-0.5,0.5V720.3z"/>
		<path class="st0" d="M535.5,736.4h-5.2v-26h5.2v3.1c0.6-0.8,1.3-1.5,2-2c0.7-0.5,1.4-0.9,2.1-1.2c1-0.4,2-0.6,3-0.6
			c0.9,0,1.8,0.2,2.8,0.5v5.5c-0.7-0.4-1.4-0.6-2-0.8c-0.6-0.2-1.2-0.3-1.7-0.3c-1.4,0-2.8,0.6-4.2,1.9h0c-1.4,1.3-2,3.6-2,6.9
			V736.4z"/>
		<path class="st0" d="M564.3,728.9h5.3v0.8c0,0.6-0.1,1.2-0.3,1.9c-0.2,0.6-0.6,1.2-1,1.8c-0.4,0.5-1,1.1-1.6,1.6
			c-0.6,0.5-1.3,0.9-2,1.2c-1.4,0.6-3.1,1-5.1,1c-3.8,0-6.8-1.2-8.9-3.7c-2.1-2.4-3.1-5.8-3.1-10c0-4.2,1-7.5,3.1-10
			c2.1-2.5,5-3.7,8.9-3.7c2,0,3.7,0.3,5.1,1c1.4,0.6,2.6,1.5,3.5,2.6c0.4,0.6,0.8,1.2,1,1.8c0.2,0.7,0.4,1.3,0.4,2v0.8h-5.3v-0.8
			c0.1-0.7-0.3-1.4-1-2c-0.7-0.6-1.9-0.9-3.6-0.9c-1.9,0-3.5,0.7-4.9,2.1c-1.3,1.4-2,3.7-2,7c0,3.3,0.7,5.6,2,7.1
			c1.3,1.4,2.9,2.1,4.9,2.1c0.8,0,1.5-0.1,2.1-0.2c0.6-0.2,1.1-0.4,1.4-0.7c0.7-0.6,1-1.3,1-2V728.9z"/>
		<path class="st0" d="M591,728.9h5.2v0.8c0,1.2-0.5,2.4-1.4,3.7c-0.9,1.2-2.2,2.1-3.7,2.8c-1.6,0.6-3.3,0.9-5.2,0.9
			c-4,0-7-1.3-9.2-3.9c-2.1-2.5-3.2-5.8-3.2-9.6c0-4,1.1-7.3,3.4-9.9c2.3-2.6,5.2-3.9,8.8-3.9c1,0,2,0.1,2.9,0.3
			c0.9,0.2,1.8,0.5,2.5,1c0.8,0.4,1.5,1,2.2,1.7c0.7,0.7,1.2,1.5,1.7,2.4c0.9,1.8,1.4,4.3,1.4,7.5v1.9h-17.7c0,1.2,0.2,2.2,0.6,3.1
			c0.4,0.9,0.8,1.8,1.4,2.6c0.7,0.8,1.5,1.4,2.4,1.8c0.9,0.4,2,0.6,3.1,0.6c0.9,0,1.6-0.1,2.2-0.2c0.6-0.2,1.1-0.4,1.5-0.7
			c0.3-0.3,0.6-0.6,0.8-0.9c0.2-0.3,0.3-0.7,0.3-1V728.9z M591.3,720.3c0-1-0.3-2.1-0.8-3.1c-0.5-1-1.2-1.7-2.1-2.2
			c-0.5-0.2-1-0.4-1.5-0.5c-0.5-0.1-1.1-0.2-1.7-0.2c-1.4,0-2.7,0.6-3.9,1.7c-0.6,0.5-1,1.2-1.4,1.8c-0.4,0.7-0.7,1.5-0.9,2.5H591.3
			z M591.3,720.3L591.3,720.3l0.5-0.1l-0.5,0.5V720.3z"/>
		<path class="st0" d="M633.5,736.4c-0.4-1.2-0.6-2.1-0.7-2.8c-0.7,0.7-1.5,1.2-2.1,1.7c-0.7,0.5-1.3,0.8-1.9,1
			c-1.4,0.5-2.7,0.7-3.9,0.7c-2.1,0-3.9-0.6-5.4-1.9c-1.5-1.3-2.3-3.1-2.3-5.4c0-2.6,1.1-4.6,3.2-6c1-0.7,2.4-1.3,4.2-1.9
			c1.8-0.6,3.9-1.1,6.3-1.6l1.8-0.3v-2.4c0-1.3-0.4-2.2-1.3-2.8c-0.9-0.6-2-0.9-3.4-0.9c-1.6,0-2.8,0.3-3.7,1
			c-0.8,0.6-1.2,1.4-1.2,2.2v0.9h-5.6v-0.9c0-1.2,0.5-2.5,1.5-3.7h0c1-1.3,2.3-2.2,3.9-2.8c1.6-0.6,3.4-0.9,5.3-0.9
			c1.9,0,3.6,0.3,5.1,0.9h0c1.6,0.6,2.8,1.4,3.5,2.5l0,0c0.8,1,1.1,2.9,1.1,5.7v9.7c0,0.5,0,1.1,0,1.6c0,0.5,0,1.1,0.1,1.7
			c0,0.6,0.1,1.2,0.3,2c0.2,0.8,0.4,1.6,0.7,2.7H633.5z M632.7,723.9c-0.1,0-0.2,0.1-0.3,0.1c-0.1,0-0.2,0-0.3,0.1
			c-2,0.5-3.7,1-5,1.5c-1.3,0.5-2.3,0.9-2.8,1.4c-1,0.8-1.5,1.7-1.5,2.8c0,0.6,0.1,1.1,0.4,1.6c0.3,0.5,0.7,0.8,1.3,1.1l0,0
			c0.7,0.3,1.3,0.4,1.8,0.4c0.5,0,1.1-0.1,1.6-0.2c0.5-0.2,1-0.4,1.6-0.7c0.5-0.3,1-0.7,1.4-1.1c0.4-0.4,0.7-0.9,1-1.4
			c0.3-0.5,0.5-1.1,0.7-1.7c0.2-0.6,0.2-1.3,0.2-2V723.9z"/>
		<path class="st0" d="M649.5,736.4h-5.2v-26h5.2v3.1c0.3-0.4,0.6-0.7,0.9-1c0.3-0.3,0.6-0.5,0.8-0.8c0.4-0.4,0.9-0.7,1.3-0.9
			c0.4-0.3,0.9-0.5,1.4-0.6c1-0.4,2-0.5,3.2-0.5c1.7,0,3.2,0.3,4.5,1c1.3,0.7,2.3,1.7,3.1,3v0c0.7,1.3,1.1,3.4,1.1,6.2v16.4h-5.2
			v-14.6c0-2.1-0.1-3.7-0.4-4.6c-0.3-0.8-0.8-1.4-1.5-1.9c-0.4-0.2-0.8-0.4-1.2-0.5c-0.4-0.1-0.9-0.2-1.3-0.2
			c-0.6,0-1.1,0.1-1.6,0.3c-0.5,0.2-1,0.4-1.6,0.7c-0.5,0.3-0.9,0.7-1.4,1.2c-0.4,0.5-0.8,1-1.1,1.6c-0.6,1.2-0.9,3-0.9,5.2V736.4z"
			/>
		<path class="st0" d="M689.2,699.3h5.2v37.1h-5.2v-2.9c-0.3,0.4-0.5,0.7-0.8,1c-0.3,0.3-0.6,0.6-0.8,0.8c-0.4,0.3-0.8,0.6-1.3,0.8
			c-0.5,0.3-1,0.4-1.5,0.6c-0.5,0.1-1,0.2-1.6,0.3c-0.5,0.1-1,0.1-1.5,0.1c-2,0-3.8-0.6-5.5-1.6c-1.7-1.1-3-2.7-3.9-4.9
			c-0.9-2.1-1.4-4.5-1.4-7.1c0-3.9,0.9-7.2,2.9-9.8c1.9-2.6,4.6-4,8.1-4c1.1,0,2.2,0.2,3.2,0.5c1,0.3,1.9,0.8,2.7,1.4
			c0.2,0.2,0.5,0.4,0.7,0.7c0.2,0.3,0.5,0.6,0.8,1V699.3z M689.2,723.4c0-2.7-0.6-5-1.7-6.7c-1.1-1.7-2.7-2.5-4.7-2.5
			c-1.9,0-3.4,0.7-4.6,2.2c-0.6,0.8-1.1,1.7-1.4,2.8c-0.3,1.1-0.5,2.4-0.5,4c0,1.7,0.2,3.2,0.5,4.5c0.3,1.3,0.7,2.2,1.3,2.9
			c0.6,0.6,1.3,1.1,2.1,1.5c0.8,0.3,1.6,0.5,2.5,0.5c1.2,0,2.4-0.4,3.4-1.1c0.5-0.4,1-0.8,1.4-1.4c0.4-0.6,0.7-1.2,1-1.9
			c0.2-0.7,0.4-1.5,0.6-2.4C689.2,725.1,689.2,724.2,689.2,723.4"/>
		<rect x="716.4" y="700.3" class="st0" width="5.6" height="36.1"/>
		<path class="st0" d="M733.3,736.4h-5.2v-26h5.2v3.1c0.3-0.4,0.6-0.7,0.9-1c0.3-0.3,0.6-0.5,0.8-0.8c0.4-0.4,0.9-0.7,1.3-0.9
			c0.5-0.3,0.9-0.5,1.4-0.6c1-0.4,2-0.5,3.2-0.5c1.7,0,3.1,0.3,4.5,1c1.3,0.7,2.3,1.7,3.1,3v0c0.7,1.3,1.1,3.4,1.1,6.2v16.4h-5.2
			v-14.6c0-2.1-0.2-3.7-0.4-4.6c-0.3-0.8-0.8-1.4-1.5-1.9c-0.4-0.2-0.8-0.4-1.2-0.5c-0.4-0.1-0.8-0.2-1.3-0.2
			c-0.6,0-1.1,0.1-1.6,0.3c-0.5,0.2-1,0.4-1.6,0.7c-0.5,0.3-0.9,0.7-1.3,1.2c-0.4,0.5-0.8,1-1.1,1.6c-0.6,1.2-0.9,3-0.9,5.2V736.4z"
			/>
		<path class="st0" d="M773,699.3h5.2v37.1H773v-2.9c-0.3,0.4-0.5,0.7-0.8,1c-0.3,0.3-0.6,0.6-0.8,0.8c-0.4,0.3-0.8,0.6-1.3,0.8
			c-0.5,0.3-1,0.4-1.5,0.6c-0.5,0.1-1,0.2-1.6,0.3c-0.5,0.1-1,0.1-1.5,0.1c-2,0-3.8-0.6-5.5-1.6c-1.7-1.1-2.9-2.7-3.9-4.9
			c-0.9-2.1-1.4-4.5-1.4-7.1c0-3.9,1-7.2,2.9-9.8c1.9-2.6,4.6-4,8.1-4c1.1,0,2.1,0.2,3.2,0.5c1,0.3,1.9,0.8,2.7,1.4
			c0.2,0.2,0.5,0.4,0.7,0.7c0.3,0.3,0.5,0.6,0.8,1V699.3z M773,723.4c0-2.7-0.6-5-1.7-6.7c-1.1-1.7-2.7-2.5-4.7-2.5
			c-1.9,0-3.4,0.7-4.6,2.2c-0.6,0.8-1.1,1.7-1.4,2.8c-0.3,1.1-0.5,2.4-0.5,4c0,1.7,0.2,3.2,0.5,4.5c0.3,1.3,0.8,2.2,1.3,2.9
			c0.6,0.6,1.3,1.1,2.1,1.5c0.8,0.3,1.6,0.5,2.6,0.5c1.2,0,2.4-0.4,3.4-1.1c0.5-0.4,1-0.8,1.4-1.4c0.4-0.6,0.7-1.2,1-1.9
			c0.3-0.7,0.4-1.5,0.6-2.4C772.9,725.1,773,724.2,773,723.4"/>
		<path class="st0" d="M800.5,710.4h5.2v26h-5.2v-3.2c-0.3,0.4-0.6,0.7-0.9,1c-0.2,0.3-0.5,0.5-0.8,0.7c-0.9,0.7-1.8,1.2-2.7,1.6
			c-0.9,0.4-2,0.5-3.1,0.5c-2.4,0-4.5-0.7-6.2-2.1c-1.7-1.4-2.6-4.2-2.6-8.3v-16.3h5.2V725c0,3.5,0.4,5.6,1.2,6.2
			c0.4,0.3,0.9,0.6,1.4,0.8c0.5,0.2,1.1,0.3,1.8,0.3c1.1,0,2.2-0.3,3.2-1h0c0.5-0.3,1-0.7,1.4-1.2c0.4-0.5,0.8-1,1.1-1.6
			c0.6-1.3,0.9-3,0.9-5.2V710.4z"/>
		<path class="st0" d="M810.8,728.7h5.2v0.6c0,0.9,0.4,1.6,1.1,2.3h0c0.7,0.6,2,0.9,3.8,0.9c1.6,0,2.9-0.4,3.8-1.1
			c1-0.7,1.4-1.6,1.4-2.5c0-1.3-0.9-2.2-2.7-2.7l-2.1-0.7l-1.4-0.4l-2.9-0.9c-3.5-1.3-5.3-3.4-5.3-6.5c0-1,0.2-2,0.7-3
			c0.4-0.9,1.1-1.8,1.9-2.6c0.9-0.8,1.9-1.4,3.1-1.8c1.2-0.4,2.7-0.6,4.3-0.6c3.3,0,5.6,0.7,7,2c1.4,1.4,2.1,2.9,2.1,4.6v0.6h-5.2
			v-0.6c0-0.3-0.1-0.6-0.3-0.9c-0.2-0.3-0.5-0.5-0.8-0.7c-0.4-0.2-0.8-0.3-1.3-0.4c-0.5-0.1-1.1-0.2-1.7-0.2c-1.5,0-2.7,0.3-3.5,0.9
			c-0.7,0.6-1.1,1.3-1.1,2.1c0,0.6,0.3,1.1,0.8,1.6c0.5,0.4,1.4,0.8,2.6,1.1l2,0.5l1.5,0.4h0c1,0.3,1.8,0.5,2.5,0.7
			c0.6,0.2,1.1,0.4,1.4,0.5c0.3,0.1,0.5,0.3,0.8,0.4c0.3,0.2,0.5,0.3,0.8,0.5c0.8,0.6,1.4,1.3,1.7,2.1c0.4,0.8,0.5,1.8,0.5,2.9
			c0,2.5-0.9,4.6-2.7,6.3c-1.8,1.7-4.4,2.5-7.8,2.5c-2.2,0-3.9-0.3-5.4-1c-1.4-0.7-2.6-1.5-3.4-2.7c-0.9-1.2-1.3-2.5-1.3-4.1V728.7z
			"/>
		<path class="st0" d="M852.9,736.2c-1.2,0.3-2.2,0.5-3.1,0.7c-0.8,0.1-1.6,0.2-2.1,0.2c-1.7,0-3.1-0.3-4.5-1
			c-1.3-0.7-2.3-1.6-3-2.9c-0.7-1.3-1-3.3-1-5.9v-12.3h-4.3v-4.5h4.3v-5.9h5.2v5.9h7.3v4.5h-7.3V726c0,1,0,1.9,0.1,2.7
			c0.1,0.7,0.2,1.3,0.4,1.7c0.3,0.7,0.7,1.2,1.4,1.6c0.6,0.4,1.4,0.5,2.4,0.5c0.8,0,2.2-0.3,4.3-1V736.2z"/>
		<path class="st0" d="M862.9,736.4h-5.2v-26h5.2v3.1c0.6-0.8,1.3-1.5,2-2c0.7-0.5,1.4-0.9,2.1-1.2c1-0.4,2-0.6,3-0.6
			c0.9,0,1.8,0.2,2.8,0.5v5.5c-0.7-0.4-1.4-0.6-2-0.8c-0.6-0.2-1.2-0.3-1.7-0.3c-1.4,0-2.8,0.6-4.2,1.9h0c-1.4,1.3-2,3.6-2,6.9
			V736.4z"/>
		<path class="st0" d="M884.2,734.8l-10.9-24.4h5.8l8,17.7c1.2-2.9,2.5-5.9,3.7-8.9c1.3-3,2.5-5.9,3.7-8.8h5.3L889,736.1
			c-0.3,0.8-0.7,1.5-1,2.2c-0.3,0.7-0.7,1.4-1,1.9c-0.3,0.6-0.6,1.1-0.9,1.6c-0.3,0.5-0.5,0.8-0.8,1.1c-0.5,0.6-1,1.1-1.6,1.5
			c-0.6,0.4-1.1,0.7-1.7,1c-0.6,0.2-1.2,0.4-2,0.5c-0.7,0.1-1.6,0.2-2.5,0.2H874v-4.5h2.8c1.1,0,2-0.1,2.8-0.4
			c0.8-0.3,1.4-0.7,2-1.3c0.5-0.6,1.2-2,2.2-4.3L884.2,734.8z"/>
	</g>
</g>
</svg>
