<?xml version="1.0" encoding="utf-8"?>
<!-- Generator: Adobe Illustrator 22.0.1, SVG Export Plug-In . SVG Version: 6.00 Build 0)  -->
<svg version="1.1" id="Layer_1" xmlns="http://www.w3.org/2000/svg" xmlns:xlink="http://www.w3.org/1999/xlink" x="0px" y="0px"
	 viewBox="0 0 1000 1000" style="enable-background:new 0 0 1000 1000;" xml:space="preserve">
<style type="text/css">
	.st0{fill:#A8A7A9;}
	.st1{fill:#39457C;}
	.st2{fill:#ACACAE;}
	.st3{fill:#CDD542;}
	.st4{fill:#77B750;}
	.st5{fill:#39B5BC;}
	.st6{fill:#61B362;}
	.st7{fill:#3A89C8;}
	.st8{fill:#344773;}
	.st9{fill:#757D82;}
</style>
<g>
	<g>
		<rect x="571.8" y="242.4" class="st0" width="9" height="9"/>
		<rect x="758.7" y="353.9" class="st0" width="9" height="9"/>
		<g>
			<path class="st0" d="M867.9,344.3c2.2-1,4-2.6,5.3-4.5c1.3-2,2.3-4.4,2.9-7.2c0.6-2.8,0.8-6,0.8-9.5v-62.8h-9v62.8
				c0,2.5-0.1,4.7-0.4,6.4c-0.3,1.8-0.7,3.2-1.3,4.3c-0.6,1.1-1.5,1.9-2.6,2.4c-1.1,0.5-2.5,0.7-4.2,0.7c-0.8,0-1.5,0-2.1-0.1
				c-0.6-0.1-1.4-0.3-2.5-0.6l-2.4,8.6c2.5,0.7,4.9,1,7.3,1C863,345.9,865.7,345.4,867.9,344.3"/>
			<path class="st0" d="M837,244.4h-12.3v-2.1c0-1.1,0.2-2,0.7-2.6c0.4-0.5,1.4-0.8,2.8-0.8h6.2v-6.3H828c-3.4,0-6.1,0.9-7.9,2.7
				c-1.8,1.8-2.8,4.7-2.8,8.6v7.3H837V244.4z"/>
			<rect x="740.7" y="353.9" class="st0" width="9" height="9"/>
			<rect x="589.8" y="242.4" class="st0" width="9" height="9"/>
			<path class="st0" d="M796.5,314.1c3.4,2.4,7.4,4.2,11.9,5.4c4.5,1.2,9.2,1.7,14.3,1.7h2.4l3-6.3v8.9c0,4.7-1.3,8.1-4,10.1
				c-2.7,2-6.5,3-11.4,3c-2.8,0-5.3-0.3-7.5-0.8c-2.2-0.5-4.7-1.4-7.6-2.7l-2.8,8.6c3.4,1.3,6.5,2.2,9.2,2.9c2.7,0.6,5.3,1,8,1
				c8.8,0,15.1-2.1,19.1-6.2c4-4.2,6-9.7,6-16.8v-62.6h-14.4c-5.5,0-10.6,0.8-15.2,2.4c-4.6,1.6-8.5,3.7-11.7,6.4
				c-3.3,2.7-5.8,6-7.6,9.8c-1.8,3.8-2.7,7.9-2.7,12.3c0,5.3,1,9.8,3,13.6C790.4,308.6,793.1,311.7,796.5,314.1 M796.5,282.3
				c1.4-2.7,3.2-5,5.5-6.9c2.3-1.9,4.9-3.4,7.8-4.4c2.8-1,5.8-1.5,8.8-1.6v0h14.5l-5.1,2.6v40.3H819c-3.4,0-6.5-0.5-9.5-1.4
				c-3-0.9-5.6-2.3-7.8-4.1c-2.2-1.8-4-4-5.3-6.6c-1.3-2.6-1.9-5.6-1.9-9C794.5,287.9,795.2,285,796.5,282.3"/>
			<path class="st0" d="M574.2,344.6h18.7v-6.7c0.2,0.3,0.4,0.6,0.6,0.9c1.4,2,3.1,3.5,5.3,4.5c2.2,1,4.9,1.6,8.1,1.6h163.9v-84.6
				h-9V336h-9.3H607.3c-1.7,0-3.1-0.2-4.2-0.7c-1.1-0.5-1.9-1.3-2.6-2.4c-0.6-1.1-1.1-2.5-1.3-4.3c-0.3-1.8-0.4-3.9-0.4-6.4v-61.9
				h-24.3c-24.8,0-41.8,19.7-41.8,42.2v0.2C532.7,325.2,549.4,344.6,574.2,344.6 M542.3,302.2c0-18.5,13.3-33.4,32-33.4h21l-5.5,2.7
				v50.6c0,3.5,0.3,6.7,0.8,9.5c0.3,1.6,0.8,3.1,1.4,4.5l-17.5,0c-18.7,0-32.2-15.1-32.2-33.7V302.2z"/>
			<polygon class="st0" points="487.7,322.4 491.6,332.7 434.6,260.2 425.6,260.2 425.6,344.5 434.9,344.5 434.9,281 429.6,268.7 
				489.4,344.5 497,344.5 497,260.2 487.7,260.2 			"/>
			<path class="st0" d="M615.7,479l51.8-49.4v-33.9H529.1v38.6h71l26.3-16.9l-65.7,66l7,28.6h18.7c25.2,0,40.1,9.3,40.1,26v0.6
				c0,15.2-12,24.8-29,24.8c-20.8,0-35.4-8.8-49.5-24.5l-31,29.5c17.6,20.7,43,35.4,79.9,35.4c45.7,0,73.8-28.3,73.8-66.9v-0.6
				C670.8,498.3,643.5,483.7,615.7,479"/>
			<path class="st0" d="M367.1,258.8c-25.7,0-43.2,20.3-43.2,43.6v0.2c0,23.2,17.2,43.3,42.9,43.3c25.7,0,43.2-20.3,43.2-43.6v-0.2
				C410.1,278.9,392.8,258.8,367.1,258.8 M400.2,302.6c0,19.1-13.7,34.5-33,34.5c-19.3,0-33.3-15.6-33.3-34.8v-0.2
				c0-19.1,13.7-34.5,33-34.5c19.3,0,33.3,15.6,33.3,34.8V302.6z"/>
			<path class="st0" d="M791.6,392.3c-63.2,0-109.2,47.6-109.2,105.8v0.6c0,58.1,45.4,105.2,108.6,105.2
				c63.2,0,109.2-47.6,109.2-105.8v-0.6C900.2,439.3,854.8,392.3,791.6,392.3 M853.1,498.6c0,35.1-25.2,63.7-61.5,63.7
				c-36.3,0-62.1-29.2-62.1-64.3v-0.6c0-35.1,25.2-63.7,61.5-63.7c36.3,0,62.1,29.2,62.1,64.3V498.6z"/>
			<rect x="298" y="260.2" class="st0" width="9.5" height="84.2"/>
			<path class="st0" d="M145,576.9l8.7-6.7l44.8-34.5c36.3-28,53.9-45,53.9-79.2V456c0-38.3-28.1-63.1-70.6-63.1
				c-36.6,0-56.2,14.9-76.4,42.4l31.6,25.4c15.2-18.7,26.1-27.5,41.9-27.5c16.1,0,27.5,9.3,27.5,26.6c0,16.9-10,28-35.4,49.1
				l-68.2,55.8v35.6h151.6v-38.9h-78.1L145,576.9z"/>
			<polygon class="st0" points="145.7,345.1 181.9,260.2 171.7,260.2 143,329.3 143.9,338.5 141.6,332.8 116.7,272.8 111.5,260.2 
				100.9,260.2 137.2,345.1 			"/>
			<rect x="194.9" y="260.2" class="st0" width="9.5" height="84.2"/>
			<path class="st0" d="M254.8,297.8c-18.6-4-22.9-8.4-22.9-16.4v-0.2c0-7.6,7-13.6,18-13.6c8.7,0,16.5,2.8,24.4,9.1l5.5-7.3
				c-8.6-6.9-17.4-10.4-29.7-10.4c-16,0-27.7,9.7-27.7,23v0.2c0,13.8,8.9,20.1,28.3,24.3c17.7,3.7,21.9,8.2,21.9,16v0.2
				c0,8.3-7.5,14.3-18.8,14.3c-11.7,0-20.1-4-28.9-11.9l-5.9,7c10.1,9,21.1,13.5,34.5,13.5c16.8,0,28.8-9.4,28.8-23.8v-0.2
				C282.3,308.7,273.6,301.9,254.8,297.8"/>
			<polygon class="st1" points="376.9,378.8 387.3,388.7 377.3,399.1 367,389.2 			"/>
			<polygon class="st2" points="400.7,389.2 411.1,399.1 421,388.7 410.6,378.8 			"/>
			<polygon class="st3" points="386.1,402.2 394.1,410 401.9,401.9 393.8,394.2 			"/>
			<polygon class="st4" points="415.7,406.6 423.8,414.4 431.5,406.3 423.4,398.6 			"/>
			<polygon class="st3" points="372.9,414.5 380.9,422.3 388.7,414.2 380.6,406.5 			"/>
			<polygon class="st5" points="400,415.5 408,423.2 415.8,415.2 407.7,407.4 			"/>
			<polygon class="st4" points="389.4,424.8 395,430.2 400.5,424.5 394.8,419.1 			"/>
			<polygon class="st6" points="410.8,429 416.5,434.5 421.9,428.8 416.3,423.4 			"/>
			
				<rect x="459.1" y="384.1" transform="matrix(0.9836 -0.1802 0.1802 0.9836 -63.1835 90.8034)" class="st7" width="17.9" height="17.9"/>
			
				<rect x="435.8" y="391.8" transform="matrix(0.9836 -0.1801 0.1801 0.9836 -64.6296 86.3231)" class="st8" width="14.4" height="14.4"/>
			
				<rect x="463.1" y="411.5" transform="matrix(0.9836 -0.1804 0.1804 0.9836 -67.8243 91.7271)" class="st5" width="14.4" height="14.4"/>
			<polygon class="st3" points="442.5,415 444.5,426 455.5,424 453.5,413 			"/>
			
				<rect x="464.8" y="434.8" transform="matrix(0.9836 -0.1801 0.1801 0.9836 -71.6307 91.9381)" class="st2" width="11.2" height="11.2"/>
			
				<rect x="426.9" y="418.4" transform="matrix(0.9836 -0.1801 0.1801 0.9836 -69.2945 84.8363)" class="st5" width="11.2" height="11.2"/>
			
				<rect x="446.9" y="432.8" transform="matrix(0.9836 -0.1801 0.1801 0.9836 -71.5611 88.6739)" class="st4" width="11.2" height="11.2"/>
			
				<rect x="432.6" y="434.4" transform="matrix(0.9836 -0.1804 0.1804 0.9836 -71.9154 85.9317)" class="st2" width="7.9" height="7.9"/>
			
				<rect x="447.4" y="450.4" transform="matrix(0.9837 -0.1799 0.1799 0.9837 -74.3609 88.5985)" class="st6" width="7.9" height="7.9"/>
			<polygon class="st1" points="510.1,443.5 502.4,459.7 518.6,467.4 526.3,451.2 			"/>
			<polygon class="st5" points="487.1,436.1 480.9,449 493.9,455.2 500.1,442.2 			"/>
			<polygon class="st4" points="497.7,468 491.5,481 504.5,487.1 510.7,474.2 			"/>
			<polygon class="st3" points="480.7,458.3 475.9,468.4 486,473.2 490.8,463.1 			"/>
			<polygon class="st3" points="485.8,487.7 481,497.8 491.1,502.6 495.9,492.5 			"/>
			<polygon class="st7" points="464.7,452.3 459.9,462.4 470,467.2 474.8,457.1 			"/>
			<polygon class="st2" points="472.5,475.6 467.7,485.7 477.8,490.5 482.6,480.4 			"/>
			<polygon class="st4" points="460.3,468.5 456.9,475.6 464,479 467.4,471.9 			"/>
			
				<rect x="460.9" y="491.5" transform="matrix(0.4298 -0.9029 0.9029 0.4298 -182.2439 702.2294)" class="st5" width="7.9" height="7.9"/>
			<polygon class="st7" points="518.8,520.9 503.1,529.5 511.7,545.2 527.4,536.6 			"/>
			<polygon class="st5" points="504.5,501.4 491.9,508.3 498.8,520.9 511.4,514 			"/>
			<polygon class="st5" points="494.4,533.5 481.8,540.4 488.7,553 501.3,546.1 			"/>
			<polygon class="st1" points="486.3,515.7 476.5,521.1 481.9,530.9 491.7,525.5 			"/>
			<polygon class="st6" points="473.2,542.6 463.4,548 468.8,557.8 478.6,552.4 			"/>
			<polygon class="st8" points="476.9,501.5 467.1,506.9 472.4,516.7 482.3,511.3 			"/>
			<polygon class="st3" points="469.5,525 459.7,530.4 465.1,540.1 474.9,534.8 			"/>
			<polygon class="st2" points="463.8,512.1 456.9,515.9 460.7,522.8 467.6,519 			"/>
			<polygon class="st5" points="453.3,531.2 446.4,535 450.2,541.9 457.1,538.1 			"/>
			
				<rect x="461.6" y="587.6" transform="matrix(0.1227 -0.9924 0.9924 0.1227 -179.2423 990.3045)" class="st4" width="17.9" height="17.9"/>
			
				<rect x="465.2" y="563.7" transform="matrix(0.123 -0.9924 0.9924 0.123 -152.2829 969.4294)" class="st8" width="14.4" height="14.4"/>
			
				<rect x="438.2" y="583.8" transform="matrix(0.123 -0.9924 0.9924 0.123 -195.9552 960.287)" class="st5" width="14.4" height="14.4"/>
			
				<rect x="445.4" y="564.8" transform="matrix(0.1227 -0.9924 0.9924 0.1227 -170.474 948.0493)" class="st4" width="11.2" height="11.2"/>
			
				<rect x="419" y="579" transform="matrix(0.1227 -0.9924 0.9924 0.1227 -207.6656 934.275)" class="st2" width="11.2" height="11.2"/>
			
				<rect x="446.1" y="547.8" transform="matrix(0.123 -0.9924 0.9924 0.123 -153.0896 933.5422)" class="st2" width="11.2" height="11.2"/>
			
				<rect x="426.3" y="562.5" transform="matrix(0.123 -0.9924 0.9924 0.123 -185.027 926.8536)" class="st4" width="11.2" height="11.2"/>
			
				<rect x="432.7" y="549" transform="matrix(0.1227 -0.9924 0.9924 0.1227 -165.6166 918.4746)" class="st2" width="7.9" height="7.9"/>
			
				<rect x="413" y="558.4" transform="matrix(0.1226 -0.9925 0.9925 0.1226 -192.2235 907.1531)" class="st2" width="7.9" height="7.9"/>
			<polygon class="st3" points="409.7,621.4 396.5,609.2 384.4,622.4 397.5,634.5 			"/>
			<polygon class="st4" points="407.3,370.8 394.1,358.6 381.9,371.7 395.1,383.9 			"/>
			<polygon class="st5" points="423.7,601.8 413.2,592 403.4,602.5 413.9,612.3 			"/>
			<polygon class="st4" points="390,602.3 379.5,592.6 369.7,603.1 380.2,612.8 			"/>
			<polygon class="st7" points="404.4,589 396.2,581.4 388.6,589.6 396.8,597.2 			"/>
			<polygon class="st3" points="374.7,585.1 366.5,577.5 358.9,585.7 367.1,593.3 			"/>
			<polygon class="st3" points="414.9,575.6 406.7,568 399.1,576.2 407.3,583.8 			"/>
			<polygon class="st2" points="390.3,576 382.1,568.4 374.5,576.6 382.7,584.2 			"/>
			<polygon class="st8" points="400.7,566.5 394.9,561.2 389.6,567 395.4,572.3 			"/>
			<polygon class="st2" points="379.2,562.6 373.4,557.3 368.1,563 373.9,568.4 			"/>
			
				<rect x="313.6" y="590.6" transform="matrix(0.9805 -0.1965 0.1965 0.9805 -111.4987 75.0552)" class="st7" width="17.9" height="17.9"/>
			
				<rect x="340.3" y="586" transform="matrix(0.9805 -0.1964 0.1964 0.9805 -109.7484 79.8244)" class="st5" width="14.4" height="14.4"/>
			
				<rect x="312.7" y="566.8" transform="matrix(0.9805 -0.1967 0.1967 0.9805 -106.6559 74.1406)" class="st4" width="14.4" height="14.4"/>
			<polygon class="st3" points="347.8,577.2 345.6,566.2 334.6,568.4 336.8,579.4 			"/>
			
				<rect x="352" y="562.5" transform="matrix(0.9805 -0.1964 0.1964 0.9805 -104.6088 81.3101)" class="st1" width="11.2" height="11.2"/>
			
				<rect x="331.8" y="548.4" transform="matrix(0.9805 -0.1964 0.1964 0.9805 -102.2401 77.0621)" class="st7" width="11.2" height="11.2"/>
			
				<rect x="349.4" y="549.8" transform="matrix(0.9805 -0.1963 0.1963 0.9805 -101.8115 80.1294)" class="st4" width="7.9" height="7.9"/>
			
				<rect x="334.3" y="534.1" transform="matrix(0.9804 -0.1968 0.1968 0.9804 -99.263 77.0847)" class="st2" width="7.9" height="7.9"/>
			<polygon class="st5" points="279.7,549.8 287.2,533.5 270.8,526.1 263.4,542.3 			"/>
			<polygon class="st3" points="302.8,556.9 308.8,543.8 295.7,537.8 289.7,550.9 			"/>
			<polygon class="st7" points="291.7,525.1 297.6,512 284.5,506.1 278.6,519.2 			"/>
			
				<rect x="300.5" y="521.5" transform="matrix(0.4149 -0.9099 0.9099 0.4149 -300.5451 586.9036)" class="st5" width="11.2" height="11.2"/>
			<polygon class="st2" points="322.5,560 327.1,549.8 316.9,545.2 312.3,555.3 			"/>
			
				<rect x="294.9" y="492.2" transform="matrix(0.4151 -0.9098 0.9098 0.4151 -277.126 564.5166)" class="st1" width="11.2" height="11.2"/>
			
				<rect x="316.6" y="527.3" transform="matrix(0.4151 -0.9098 0.9098 0.4151 -296.3611 604.8197)" class="st6" width="11.2" height="11.2"/>
			
				<rect x="308.4" y="504.1" transform="matrix(0.4154 -0.9096 0.9096 0.4154 -280.0325 583.6016)" class="st3" width="11.2" height="11.2"/>
			<polygon class="st8" points="329.1,524 332.3,516.8 325.2,513.6 321.9,520.7 			"/>
			<polygon class="st4" points="326,502.4 329.3,495.2 322.1,492 318.8,499.1 			"/>
			<polygon class="st5" points="269.7,472.5 285.3,463.7 276.4,448.1 260.8,457 			"/>
			<polygon class="st4" points="284.3,491.8 296.8,484.7 289.7,472.2 277.2,479.3 			"/>
			<polygon class="st8" points="293.9,459.5 306.4,452.4 299.2,439.9 286.7,447 			"/>
			<polygon class="st7" points="302.3,477.2 312,471.7 306.4,462 296.7,467.5 			"/>
			<polygon class="st4" points="314.9,450.1 324.6,444.6 319.1,434.9 309.4,440.4 			"/>
			<polygon class="st5" points="311.9,491.3 321.7,485.7 316.1,476 306.4,481.6 			"/>
			<polygon class="st3" points="318.9,467.7 328.7,462.1 323.1,452.4 313.4,458 			"/>
			<polygon class="st2" points="324.9,480.4 331.7,476.6 327.8,469.7 320.9,473.6 			"/>
			<polygon class="st4" points="335,461.1 341.9,457.2 338,450.4 331.1,454.3 			"/>
			
				<rect x="307.8" y="387.2" transform="matrix(0.1063 -0.9943 0.9943 0.1063 -110.8318 668.9639)" class="st4" width="17.9" height="17.9"/>
			
				<rect x="308.2" y="414.6" transform="matrix(0.1064 -0.9943 0.9943 0.1064 -137.6413 690.4933)" class="st2" width="14.4" height="14.4"/>
			
				<rect x="334.8" y="394" transform="matrix(0.1064 -0.9943 0.9943 0.1064 -93.3434 698.6234)" class="st5" width="14.4" height="14.4"/>
			
				<rect x="331.1" y="416.3" transform="matrix(0.1065 -0.9943 0.9943 0.1065 -118.6803 711.7245)" class="st3" width="11.2" height="11.2"/>
			
				<rect x="357.3" y="401.7" transform="matrix(0.1062 -0.9943 0.9943 0.1062 -80.7088 724.8474)" class="st7" width="11.2" height="11.2"/>
			
				<rect x="330.7" y="433.4" transform="matrix(0.1066 -0.9943 0.9943 0.1066 -135.9993 726.5795)" class="st5" width="11.2" height="11.2"/>
			
				<rect x="350.2" y="418.3" transform="matrix(0.1066 -0.9943 0.9943 0.1066 -103.6093 732.5174)" class="st4" width="11.2" height="11.2"/>
			
				<rect x="347.4" y="435.3" transform="matrix(0.1063 -0.9943 0.9943 0.1063 -122.7671 741.7993)" class="st8" width="7.9" height="7.9"/>
			
				<rect x="366.9" y="425.5" transform="matrix(0.1059 -0.9944 0.9944 0.1059 -95.49 752.7775)" class="st2" width="7.9" height="7.9"/>
			<path class="st9" d="M451.1,507.6c-1.3-0.8-3.8-2-7.1-3.1c-4.8-1.5-11.6-2.7-19.6-1.4c-2.7,0.4-5.5,1.1-8.5,2.2
				c-0.3,0.1-0.6,0.2-0.8,0.3c-1.5,0.6-3,1.2-4.5,2c-1.3,0.6-2.5,1.4-3.8,2.1c-2.9,1.7-5.7,3.7-8.5,5.8c-3.1-19.1-1.6-36.8-0.9-45.5
				c0,0,0.1-0.1,0.1,0c6.8,4.2,4.9,16.1,3.4,19.5c0,0.1,0.1,0.1,0.1,0.1c8.4-9.9,4.3-20.9,2.6-23.7c0-0.1,0-0.1,0.1-0.1
				c1.2,1,2.2,2,3,3.1c2.6,3.3,3.6,6.9,3.8,10.1c0.1,1.7,0.1,3.2,0,4.6c0,0.4-0.1,0.7-0.1,1c0,0.1,0,0.1,0.1,0.1c0,0,0,0,0,0
				c2.3-4.5,3.4-11.2,0-17.8c-0.9-1.8-2.2-3.5-3.8-5.2c-0.5-0.5-1-1-1.5-1.5c-0.1,0,0-0.1,0.1-0.1c0.5,0.1,1,0.3,1.5,0.4
				c1.4,0.5,2.7,1.2,3.8,2c2.6,1.9,4.3,4.5,5.3,7.2c0.9,2.2,1.3,4.5,1.2,6.6c0,0.1,0.1,0.1,0.1,0c1.6-5.8,0.6-10.2-1.4-13.4
				c-1.4-2.3-3.4-4-5.3-5.1c-1.3-0.8-2.7-1.4-3.8-1.7c-0.7-0.2-1.3-0.3-1.8-0.4c-0.1,0-0.1-0.1,0-0.1c0.6-0.1,1.2-0.1,1.8-0.1
				c1.4,0,2.7,0.1,3.8,0.3c2.3,0.4,4,1.2,5.3,2.1c2.1,1.4,3.2,3.1,3.6,3.8c0,0.1,0.1,0,0.1,0c-0.3-3.1-1.7-5.5-3.7-7.2
				c-1.5-1.3-3.4-2.3-5.3-2.8c-1.3-0.3-2.6-0.5-3.8-0.5c-1.7,0-3.4,0.3-4.8,0.9c-0.1,0-0.1,0-0.1-0.1c1.2-1.8,3-2.9,4.9-3.4
				c1.3-0.4,2.6-0.5,3.8-0.5c1.2,0.1,2.3,0.3,3.1,0.7c0.1,0,0.1-0.1,0.1-0.1c-1-1.1-2-2-3.2-2.6c-1.2-0.7-2.5-1.1-3.8-1.2
				c-3.4-0.4-6.9,1.1-9.2,4.6c0,0-0.1,0-0.1,0c-0.4-0.8-0.9-1.7-1.3-2.6c-0.9-2.1-1.7-4.6-2.1-6.9c0-0.1-0.1-0.1-0.1,0
				c-0.4,2.4-1.2,4.8-2.1,7c-0.4,0.9-0.8,1.8-1.3,2.6c0,0-0.1,0-0.1,0c-4-6.1-11.6-6-16.2-0.7c0,0.1,0,0.1,0.1,0.1
				c3.1-1.5,8.9-1,11.8,3.1c0,0.1,0,0.1-0.1,0.1c-4.5-1.9-11.4-0.7-15.1,3.7c-1.3,1.6-2.2,3.6-2.5,5.9c0,0.1,0.1,0.1,0.1,0
				c0.3-0.5,1-1.7,2.3-2.9c2.2-1.9,5.9-3.8,12.2-3.3c0.1,0,0.1,0.1,0,0.1c-3.2,0.4-9.8,3.2-12.2,9.8c-1.1,2.9-1.3,6.5-0.1,10.9
				c0,0.1,0.1,0.1,0.1,0c0-0.1,0-0.2,0-0.3c0.1-5.9,3.5-13.9,11.8-15.9c0.1,0,0.1,0.1,0.1,0.1c-9.4,8.3-8.5,18.4-5.4,24.4
				c0,0.1,0.1,0,0.1,0c-0.4-4.5-0.7-12.6,6.8-18.8c0.1,0,0.1,0,0.1,0.1c-1.7,2.8-5.8,13.8,2.6,23.7c0,0.1,0.2,0,0.1-0.1
				c-1.4-3.4-3.3-15.3,3.4-19.5c0,0,0.1,0,0.1,0c0.7,8.7,2.3,26.4-0.9,45.5c-5.4-4.2-11.2-7.8-16.8-10c-0.7-0.3-1.4-0.5-2.1-0.7
				c-5.9-1.9-11.2-2.5-15.9-2.3c-7.5,0.3-13.3,2.6-16.4,4.1c-0.6,0.3-1.2,0.6-1.6,0.9c-0.2,0.1,0,0.3,0.1,0.3c0.5-0.2,1-0.3,1.5-0.4
				c5.8-1.6,11.2-2.1,16.4-1.6c5.6,0.5,10.9,2,15.9,4.3c6.9,3.1,13.2,7.6,18.9,12.3c-8,7-14.8,13.8-18.9,16.2
				c-0.2,0.1-0.4,0.2-0.6,0.3c-1-1.3-2.7-2.1-4.6-1.7c-1.6,0.4-3,1.7-3.3,3.3c-0.3,1.4,0,3,0.9,3.8c2.2,2.2,4.7,2.3,7.6,1.1
				c5.6-2.3,12.5-9.7,20.9-17.4c0.7-0.6,1.4-1.3,2.2-1.9c0.7,0.6,1.4,1.3,2.1,1.9c3.8,3.5,7.4,6.9,10.6,9.9c1.3,1.2,2.6,2.3,3.8,3.3
				c1.9,1.5,3.7,2.8,5.3,3.7c3.2,1.7,6.1,1.9,8.5-0.2c0.1-0.1,0.3-0.2,0.4-0.3c0.6-0.6,1.2-2.4,0.9-3.8c-0.2-0.8-0.6-1.6-1.3-2.2
				c-0.6-0.5-1.3-0.9-2.1-1.1c-1.9-0.4-3.6,0.4-4.6,1.7c-0.6-0.3-1.2-0.7-1.8-1.1c-1.5-1-3.3-2.5-5.3-4.3c-1.2-1.1-2.5-2.2-3.8-3.4
				c-2.6-2.4-5.5-5-8.5-7.7c2.7-2.3,5.6-4.4,8.5-6.5c1.2-0.8,2.5-1.7,3.8-2.4c1.7-1,3.5-2,5.3-2.9c2.7-1.3,5.5-2.4,8.5-3.2
				c6.1-1.7,12.6-2.3,19.6-1.2c2.3,0.4,4.6,0.9,7,1.6C451.2,507.9,451.3,507.7,451.1,507.6"/>
			<rect x="142.6" y="702.5" class="st0" width="5.3" height="5.3"/>
			<path class="st0" d="M498,696.4v-34.8h-5.1v29.7h-19.4v-29.7h-5.1v29.7h-20.5v-29.7h-8.1c-3.2,0-6.1,0.4-8.8,1.3
				c-2.6,0.9-4.8,2.1-6.7,3.7c-1.8,1.6-3.3,3.4-4.3,5.6c-1,2.1-1.5,4.5-1.5,6.9c0,3,0.6,5.6,1.7,7.8c1.2,2.2,2.7,4,4.6,5.4
				c1.9,1.4,4.2,2.5,6.8,3.1c2.6,0.7,5.3,1,8.1,1H498z M432.2,690.4c-1.7-0.6-3.2-1.4-4.4-2.4c-1.3-1-2.3-2.3-3-3.9
				c-0.7-1.5-1.1-3.2-1.1-5.2c0-1.8,0.4-3.5,1.2-5c0.8-1.5,1.8-2.8,3.2-3.9c1.3-1.1,2.8-1.9,4.5-2.5c1.7-0.6,3.4-0.9,5.1-0.9h5.1
				v24.6h-5.1C435.7,691.2,433.9,691,432.2,690.4"/>
			<rect x="388" y="650.3" class="st0" width="5.1" height="46.1"/>
			<rect x="442.6" y="650.3" class="st0" width="5.3" height="5.3"/>
			<rect x="492.8" y="702.4" class="st0" width="5.3" height="5.3"/>
			<rect x="151.6" y="702.4" class="st0" width="5.3" height="5.3"/>
			<path class="st0" d="M367.9,691.2h-8.4c-3,0-5.4-0.4-7.1-1.3c-1.7-0.9-3.1-2.1-4.1-3.9c0.3-1.3,0.5-2.9,0.5-4.8v-16.6h-5.1v17.4
				c0,3-0.8,5.3-2.4,7.1c-1.6,1.8-4,2.7-7.2,2.7c-1.5,0-2.9-0.2-4.1-0.7c-1.2-0.5-2.3-1.1-3.2-1.9c-0.9-0.8-1.6-1.8-2.1-2.9
				c-0.5-1.1-0.8-2.3-0.8-3.5v-18.2h-5.1v17.8c0,1.6-0.2,2.9-0.7,4c-0.5,1.1-1.1,2-1.9,2.7c-0.8,0.7-1.7,1.2-2.8,1.5
				c-1,0.3-2.1,0.5-3.3,0.5h-10v-26.5h-5.1v26.5h-27l9-21.5c-1.4-1.2-2.8-2.3-4.4-3.4c-1.5-1-3.1-2-4.8-2.8c-1.6-0.8-3.3-1.4-5-1.9
				c-1.7-0.4-3.3-0.7-5-0.7c-1.7,0-3.3,0.2-5,0.7c-1.7,0.5-3.3,1.1-5,1.8c-1.6,0.8-3.2,1.7-4.8,2.8c-1.5,1.1-2.9,2.2-4.3,3.4
				l9.1,21.5H230v-29.7h-8.2c-3.2,0-6.1,0.4-8.7,1.3c-2.6,0.9-4.9,2.1-6.7,3.7c-1.9,1.6-3.3,3.4-4.3,5.6c-1,2.2-1.5,4.5-1.5,7
				c0,3,0.6,5.6,1.7,7.8c1.1,2.2,2.7,3.9,4.6,5.3c1.9,1.4,4.2,2.4,6.8,3.1c2.6,0.7,5.3,1,8.2,1h3.1v1.5c0,2.7-0.8,4.6-2.3,5.8
				c-1.5,1.2-3.7,1.7-6.5,1.7c-1.6,0-3-0.1-4.3-0.4c-1.3-0.3-2.7-0.8-4.3-1.5l-1.6,4.9c2,0.7,3.7,1.3,5.2,1.6
				c1.5,0.4,3.1,0.5,4.6,0.5c5,0,8.7-1.2,10.9-3.6c2.3-2.4,3.4-5.6,3.4-9.6v-1h79.9c2.5,0,4.7-0.5,6.7-1.6c1.9-1.1,3.5-2.5,4.7-4.3
				c1.2,2.1,2.9,3.7,5.1,4.8c2.1,1.2,4.7,1.7,7.7,1.7c3.1,0,5.7-0.5,7.9-1.6c2.2-1.1,3.8-2.7,5-4.9c0.4,0.7,1,1.4,1.6,2.2
				c0.6,0.7,1.4,1.3,2.4,1.9c1,0.6,2.2,1,3.6,1.3c1.1,0.3,2.3,0.4,3.7,0.5v0.1H373v-46.1h-5.1V691.2z M224.8,691.2h-5.2
				c-1.9,0-3.7-0.3-5.4-0.8c-1.7-0.5-3.2-1.3-4.5-2.3c-1.3-1-2.3-2.3-3-3.8c-0.7-1.5-1.1-3.2-1.1-5.1c0-1.8,0.4-3.5,1.2-5.1
				c0.8-1.5,1.8-2.9,3.1-3.9c1.3-1.1,2.8-1.9,4.5-2.5c1.7-0.6,3.4-0.9,5.2-0.9h5.2V691.2z M253.2,691.2l-8-19.7c2-1.7,4-2.9,6.1-3.7
				c2.1-0.8,4.2-1.2,6.5-1.2c2.3,0,4.6,0.5,6.9,1.4c2.3,0.9,4.2,2.1,5.8,3.4l-8,19.7H253.2z"/>
			<rect x="124.9" y="650.3" class="st0" width="5.3" height="5.3"/>
			<rect x="645.3" y="650.3" class="st0" width="5.3" height="5.3"/>
			<rect x="599.7" y="650.3" class="st0" width="5.1" height="46.1"/>
			<rect x="433.6" y="650.3" class="st0" width="5.3" height="5.3"/>
			<path class="st0" d="M192.3,676.1c0-2-0.3-3.9-0.8-5.7c-0.5-1.8-1.4-3.3-2.5-4.5c-1.4-1.5-2.9-2.6-4.6-3.4
				c-1.7-0.7-3.8-1.1-6.2-1.1h-3.8v5.1h4.5c1.2,0,2.4,0.3,3.5,0.8c1.1,0.5,2,1.2,2.8,2.1c0.7,0.9,1.2,1.9,1.5,3
				c0.3,1.1,0.4,2.4,0.4,3.9v14.9h-24.1v5.1h29.3V676.1z"/>
			<rect x="871.8" y="650.3" class="st0" width="5.1" height="46.1"/>
			<rect x="654.3" y="650.3" class="st0" width="5.3" height="5.3"/>
			<path class="st0" d="M856.9,650.3h-5.1v40.9H834c1.1-2.4,1.6-4.9,1.6-7.6c0-2.7-0.5-5.1-1.4-7.4c-1-2.3-2.3-4.3-4-5.9
				c-1.7-1.7-3.7-3-5.9-4c-2.3-1-4.8-1.4-7.4-1.4c-2.6,0-5,0.5-7.2,1.5c-2.2,1-4.2,2.3-5.8,4c-1.6,1.7-2.9,3.7-3.9,5.9
				c-0.9,2.3-1.4,4.7-1.4,7.3c0,1.4,0.1,2.7,0.4,3.9c0.3,1.3,0.7,2.5,1.1,3.6h-15.9c1.1-2.4,1.6-4.9,1.6-7.6c0-2.7-0.5-5.1-1.4-7.4
				c-1-2.3-2.3-4.3-4-5.9c-1.7-1.7-3.7-3-5.9-4c-2.3-1-4.8-1.4-7.4-1.4c-2.6,0-5,0.5-7.2,1.5c-2.2,1-4.2,2.3-5.8,4
				c-1.7,1.7-2.9,3.7-3.9,5.9c-0.9,2.3-1.4,4.7-1.4,7.3c0,1.4,0.1,2.7,0.4,3.9c0.3,1.3,0.7,2.5,1.1,3.6h-16.3v-40.9h-5.1v40.9h-16.4
				v-7.9c0-2-0.3-3.8-0.8-5.6c-0.5-1.8-1.3-3.3-2.4-4.5c-1.3-1.5-2.8-2.6-4.5-3.3c-1.7-0.7-3.8-1.1-6.4-1.1h-22.8l9.7-18.5h-5.6
				l-9.9,18.4c0.2,1.1,0.4,2.1,0.8,2.9c0.4,0.8,0.9,1.6,1.5,2.3h26.2c1.6,0,3,0.2,4.2,0.7c1.2,0.5,2.1,1.2,2.9,2
				c0.7,0.9,1.2,1.8,1.5,3c0.3,1.1,0.4,2.4,0.4,3.7v7.9h-47.6v-29.7h-8.1c-3.2,0-6.1,0.4-8.7,1.3c-2.6,0.9-4.8,2.1-6.7,3.7
				c-1.8,1.6-3.3,3.4-4.3,5.6c-1,2.1-1.5,4.5-1.5,6.9c0,3,0.6,5.6,1.7,7.8c1.2,2.2,2.7,4,4.6,5.4c1.9,1.4,4.2,2.5,6.8,3.1
				c2.6,0.7,5.3,1,8.1,1h102.1c1.7,1.8,3.7,3.2,6,4.3c2.3,1,4.8,1.6,7.5,1.6c2.7,0,5.3-0.5,7.7-1.5c2.4-1,4.4-2.5,6.1-4.3h22.6
				c1.7,1.8,3.7,3.2,6,4.3c2.3,1,4.8,1.6,7.5,1.6c2.7,0,5.3-0.5,7.7-1.5c2.4-1,4.4-2.5,6.1-4.3h26.2V650.3z M654.4,691.2h-5.1
				c-1.9,0-3.7-0.3-5.4-0.8c-1.7-0.6-3.2-1.4-4.4-2.4c-1.3-1-2.3-2.3-3-3.9c-0.7-1.5-1.1-3.2-1.1-5.2c0-1.8,0.4-3.5,1.2-5
				c0.8-1.5,1.8-2.8,3.2-3.9c1.3-1.1,2.8-1.9,4.5-2.5c1.7-0.6,3.4-0.9,5.1-0.9h5.1V691.2z M779.5,688.9c-0.7,1.6-1.7,3.1-2.9,4.3
				c-1.2,1.2-2.7,2.1-4.3,2.8c-1.7,0.7-3.4,1-5.4,1c-1.9,0-3.6-0.4-5.2-1.1c-1.6-0.7-3-1.7-4.2-2.9c-1.2-1.2-2.1-2.6-2.8-4.3
				c-0.7-1.6-1-3.4-1-5.2c0-1.8,0.3-3.6,1-5.2c0.7-1.6,1.6-3.1,2.7-4.3c1.2-1.2,2.5-2.2,4.1-2.9c1.6-0.7,3.4-1.1,5.3-1.1
				c2,0,3.8,0.3,5.4,1c1.7,0.7,3.1,1.6,4.3,2.8c1.2,1.2,2.2,2.6,2.9,4.3c0.7,1.6,1,3.5,1,5.4C780.6,685.5,780.2,687.3,779.5,688.9
				 M829.4,688.9c-0.7,1.6-1.7,3.1-2.9,4.3c-1.2,1.2-2.7,2.1-4.3,2.8c-1.6,0.7-3.4,1-5.4,1c-1.9,0-3.6-0.4-5.2-1.1
				c-1.6-0.7-3-1.7-4.2-2.9c-1.2-1.2-2.1-2.6-2.8-4.3c-0.7-1.6-1-3.4-1-5.2c0-1.8,0.3-3.6,1-5.2c0.7-1.6,1.6-3.1,2.7-4.3
				c1.2-1.2,2.5-2.2,4.1-2.9c1.6-0.7,3.4-1.1,5.3-1.1c2,0,3.8,0.3,5.4,1c1.7,0.7,3.1,1.6,4.3,2.8c1.2,1.2,2.2,2.6,2.9,4.3
				c0.7,1.6,1,3.5,1,5.4C830.5,685.5,830.1,687.3,829.4,688.9"/>
			<path class="st0" d="M114,695.3c2.6,0.7,5.3,1,8.1,1h33.7v-34.8h-5.1v29.7h-20.4v-29.7h-8.1c-3.2,0-6.1,0.4-8.7,1.3
				c-2.6,0.9-4.8,2.1-6.7,3.7c-1.8,1.6-3.3,3.4-4.3,5.6c-1,2.1-1.5,4.5-1.5,6.9c0,3,0.6,5.6,1.7,7.8c1.2,2.2,2.7,4,4.6,5.4
				C109.2,693.6,111.5,694.7,114,695.3 M106.1,679c0-1.8,0.4-3.5,1.2-5c0.8-1.5,1.8-2.8,3.1-3.9c1.3-1.1,2.8-1.9,4.5-2.5
				c1.7-0.6,3.4-0.9,5.1-0.9h5.1v24.6H120c-1.9,0-3.7-0.3-5.4-0.8c-1.7-0.6-3.2-1.4-4.4-2.4c-1.3-1-2.3-2.3-3-3.9
				C106.4,682.6,106.1,680.9,106.1,679"/>
			<rect x="474" y="702.4" class="st0" width="5.3" height="5.3"/>
			<rect x="465" y="702.4" class="st0" width="5.3" height="5.3"/>
			<path class="st0" d="M518.1,702.9c0.3-1.6,0.5-3.4,0.5-5.4v-1.1h66.2v-46.1h-5.1v40.9h-21.9l9-21.5c-1.4-1.2-2.8-2.3-4.4-3.4
				c-1.5-1-3.1-2-4.8-2.8c-1.6-0.8-3.3-1.4-5-1.9c-1.7-0.4-3.3-0.7-4.9-0.7c-1.7,0-3.3,0.2-5,0.7c-1.7,0.5-3.3,1.1-5,1.8
				c-1.7,0.8-3.2,1.7-4.8,2.8c-1.5,1.1-2.9,2.2-4.3,3.4l9.1,21.5h-19.2v-29.7h-5.1v35.9c0,1.5-0.1,2.7-0.2,3.7
				c-0.2,1-0.4,1.8-0.8,2.4c-0.4,0.6-0.9,1.1-1.5,1.3c-0.6,0.3-1.4,0.4-2.4,0.4c-0.5,0-0.9,0-1.2-0.1c-0.3,0-0.8-0.2-1.4-0.3
				l-1.3,4.9c1.4,0.4,2.8,0.6,4.2,0.6c1.8,0,3.4-0.3,4.7-0.9c1.3-0.6,2.3-1.5,3.1-2.6C517.2,705.9,517.7,704.5,518.1,702.9
				 M535.1,671.5c2-1.7,4-2.9,6.1-3.7c2.1-0.8,4.3-1.2,6.5-1.2c2.3,0,4.6,0.5,6.9,1.4c2.3,0.9,4.2,2.1,5.8,3.4l-8,19.7h-9.2
				L535.1,671.5z"/>
			<rect x="115.9" y="650.3" class="st0" width="5.3" height="5.3"/>
			<polygon class="st0" points="137.8,730.1 129.9,730.1 112.4,748.5 112.4,730.1 106,730.1 106,766.8 112.4,766.8 112.4,756.1 
				118.1,750.3 130.7,766.8 138.5,766.8 122.6,745.9 			"/>
			<rect x="144.4" y="730.1" class="st0" width="6.5" height="36.7"/>
			<polygon class="st0" points="186.5,755.5 166.8,730.1 160.8,730.1 160.8,766.8 167.2,766.8 167.2,740.7 187.4,766.8 192.8,766.8 
				192.8,730.1 186.5,730.1 			"/>
			<path class="st0" d="M219.6,751.9h9.4v6.9c-2.3,1.7-5.4,2.8-8.9,2.8c-7.5,0-12.5-5.6-12.5-13.1v-0.1c0-7,5.1-12.9,11.9-12.9
				c4.7,0,7.5,1.5,10.3,3.9l4.1-4.9c-3.8-3.2-7.7-5-14.1-5c-11.1,0-18.9,8.7-18.9,19v0.1c0,10.7,7.6,18.9,19.1,18.9
				c6.5,0,11.7-2.6,15.3-5.7v-15.4h-15.6V751.9z"/>
			<path class="st0" d="M257.8,730.1h-13.7v36.7h13.7c11.5,0,19.5-8,19.5-18.3v-0.1C277.3,738,269.4,730.1,257.8,730.1 M270.6,748.5
				c0,7.2-5,12.4-12.8,12.4h-7.2V736h7.2c7.7,0,12.8,5.3,12.8,12.5V748.5z"/>
			<path class="st0" d="M302.7,729.5c-11.3,0-19.3,8.6-19.3,19v0.1c0,10.3,7.9,18.9,19.2,18.9c11.3,0,19.3-8.6,19.3-19v-0.1
				C321.8,738,313.9,729.5,302.7,729.5 M315,748.5c0,7.1-5.1,12.9-12.4,12.9c-7.3,0-12.5-5.9-12.5-13v-0.1c0-7.1,5.1-12.9,12.4-12.9
				c7.3,0,12.5,5.9,12.5,13V748.5z"/>
			<polygon class="st0" points="347.9,747.4 336.7,730.1 329.8,730.1 329.8,766.8 336.2,766.8 336.2,740.6 347.7,757.8 347.9,757.8 
				359.5,740.5 359.5,766.8 365.9,766.8 365.9,730.1 359.1,730.1 			"/>
			<path class="st0" d="M408.8,729.5c-11.3,0-19.3,8.6-19.3,19v0.1c0,10.3,7.9,18.9,19.2,18.9c11.3,0,19.3-8.6,19.3-19v-0.1
				C428,738,420.1,729.5,408.8,729.5 M421.2,748.5c0,7.1-5.1,12.9-12.4,12.9c-7.3,0-12.5-5.9-12.5-13v-0.1c0-7.1,5.1-12.9,12.4-12.9
				c7.3,0,12.5,5.9,12.5,13V748.5z"/>
			<polygon class="st0" points="436,766.8 442.4,766.8 442.4,751.8 461,751.8 461,746 442.4,746 442.4,736 463.3,736 463.3,730.1 
				436,730.1 			"/>
			<path class="st0" d="M500.3,745.5c-7-1.7-8.7-2.9-8.7-5.8v-0.1c0-2.4,2.2-4.4,6-4.4c3.4,0,6.7,1.3,10,3.8l3.5-4.9
				c-3.7-3-8-4.6-13.3-4.6c-7.3,0-12.6,4.3-12.6,10.6v0.1c0,6.8,4.4,9.1,12.2,10.9c6.8,1.6,8.3,3,8.3,5.6v0.1c0,2.8-2.5,4.6-6.5,4.6
				c-4.6,0-8.1-1.7-11.6-4.8l-3.9,4.6c4.4,3.9,9.7,5.9,15.3,5.9c7.7,0,13.1-4.1,13.1-11v-0.1C512.2,750.2,508.1,747.4,500.3,745.5"
				/>
			<path class="st0" d="M531.9,729.8l-16.2,36.9h6.6l3.8-8.9h17.4l3.7,8.9h6.8l-16.2-36.9H531.9z M528.5,752.2l6.3-14.7l6.4,14.7
				H528.5z"/>
			<path class="st0" d="M582.9,751.2c0,6.8-3.5,10.2-9.2,10.2c-5.8,0-9.3-3.7-9.3-10.5v-20.9h-6.5v21.1c0,10.6,6.1,16.1,15.6,16.1
				c9.6,0,15.8-5.5,15.8-16.4v-20.8h-6.5V751.2z"/>
			<path class="st0" d="M612.5,730.1h-13.7v36.7h13.7c11.5,0,19.5-8,19.5-18.3v-0.1C632,738,624,730.1,612.5,730.1 M625.2,748.5
				c0,7.2-5,12.4-12.8,12.4h-7.2V736h7.2c7.7,0,12.8,5.3,12.8,12.5V748.5z"/>
			<rect x="640.2" y="730.1" class="st0" width="6.5" height="36.7"/>
			<path class="st0" d="M685.2,729.8l-16.2,36.9h6.6l3.8-8.9h17.4l3.7,8.9h6.8l-16.2-36.9H685.2z M681.8,752.2l6.3-14.7l6.4,14.7
				H681.8z"/>
			<path class="st0" d="M743.5,741.8v-0.1c0-3.2-1.1-5.9-3-7.9c-2.4-2.3-6-3.7-10.6-3.7h-16.4v36.7h6.5V754h8h0.1l9,12.8h7.6
				l-9.9-13.9C739.9,751.4,743.5,747.8,743.5,741.8 M719.9,748.3V736h9.4c4.8,0,7.6,2.2,7.6,6.1v0.1c0,3.7-2.9,6.1-7.6,6.1H719.9z"
				/>
			<path class="st0" d="M765.6,729.8l-16.2,36.9h6.6l3.8-8.9h17.4l3.7,8.9h6.8l-16.2-36.9H765.6z M762.2,752.2l6.3-14.7l6.4,14.7
				H762.2z"/>
			<path class="st0" d="M817.1,747.7c2.7-1.4,5.2-3.8,5.2-8.2v-0.1c0-2.5-0.8-4.5-2.5-6.1c-2.1-2.1-5.4-3.3-9.6-3.3h-16.5v36.7h17
				c8.2,0,13.6-3.5,13.6-10.1v-0.1C824.4,751.6,821.4,749.2,817.1,747.7 M800.2,735.8h9.3c4.1,0,6.5,1.8,6.5,4.7v0.1
				c0,3.4-2.8,5-6.9,5h-8.8V735.8z M818,756c0,3.3-2.7,5-7.1,5h-10.7V751h10.2c5.1,0,7.6,1.8,7.6,4.9V756z"/>
			<rect x="832.4" y="730.1" class="st0" width="6.5" height="36.7"/>
			<path class="st0" d="M867.2,729.8h-6L845,766.8h6.6l3.8-8.9h17.4l3.7,8.9h6.8L867.2,729.8z M857.8,752.2l6.3-14.7l6.4,14.7H857.8
				z"/>
		</g>
	</g>
</g>
</svg>
